<svg xmlns="http://www.w3.org/2000/svg" version="1.1" viewBox="362.496 247.808 811.008 454.656" style="max-height: 500px" width="811.008" height="454.656">
<g id="#878786ff">
</g>
<g id="#b3bbc3ff">
</g>
<g id="#d4d9dfff">
</g>
<g id="#c4cad2ff">
</g>
<g id="#a7afb9ff">
</g>
<g id="#bdc6cdff">
</g>
<g id="#8c939cff">
</g>
<g id="#03071bff">
<path d="M 654.32 257.05 C 660.05 256.78 665.80 257.07 671.54 257.17 C 675.95 257.24 680.37 257.28 684.79 257.15 C 689.79 257.13 694.80 257.20 699.81 257.19 C 703.23 257.19 706.64 257.06 710.07 256.97 C 710.07 259.24 710.09 261.51 710.12 263.79 C 713.53 263.68 716.94 263.62 720.36 263.59 C 720.55 268.42 720.20 273.24 720.00 278.06 C 765.41 277.98 810.81 278.20 856.22 278.00 C 856.28 282.46 856.33 286.92 856.16 291.39 C 859.64 291.35 863.13 291.28 866.62 291.20 C 866.65 294.55 866.70 297.91 866.72 301.27 C 870.35 301.34 873.99 301.41 877.63 301.36 C 877.67 304.02 877.74 306.69 877.83 309.36 C 881.49 309.33 885.17 309.31 888.84 309.29 C 888.89 313.12 888.88 316.94 888.87 320.77 C 892.27 320.74 895.67 320.79 899.08 320.84 C 899.12 324.35 899.12 327.87 899.04 331.39 C 902.55 331.48 906.08 331.56 909.61 331.51 C 909.59 335.13 909.63 338.75 909.66 342.37 C 913.41 342.37 917.18 342.34 920.95 342.20 C 920.64 349.13 922.14 355.89 922.08 362.81 C 922.46 366.01 922.12 369.23 921.44 372.37 C 921.41 369.18 921.35 365.99 921.39 362.80 C 917.69 362.75 914.00 362.76 910.32 362.83 C 910.21 359.39 910.22 355.94 910.29 352.50 C 906.53 352.47 902.79 352.45 899.04 352.43 C 899.08 349.01 899.11 345.59 899.16 342.18 C 895.42 342.32 891.69 342.41 887.96 342.41 C 888.15 338.77 888.23 335.13 888.39 331.49 C 884.78 331.46 881.17 331.47 877.57 331.50 C 877.41 327.85 877.39 324.20 877.51 320.55 L 876.24 320.59 C 872.96 320.72 869.69 320.81 866.42 320.90 C 866.44 317.18 866.46 313.46 866.44 309.75 C 865.59 309.76 863.91 309.79 863.07 309.81 C 860.47 309.83 857.88 309.79 855.29 309.71 C 855.31 307.05 855.34 304.39 855.36 301.74 C 851.93 301.83 848.51 301.99 845.10 302.22 C 845.21 299.83 845.23 297.44 845.22 295.06 C 845.22 294.55 845.21 293.53 845.21 293.02 C 844.72 293.05 843.75 293.13 843.26 293.17 C 802.04 293.01 760.83 293.29 719.62 293.11 C 719.58 296.26 719.57 299.40 719.55 302.55 C 718.27 302.59 717.00 302.62 715.74 302.65 C 713.69 302.66 711.64 302.74 709.60 302.82 L 709.21 302.84 C 709.27 298.17 709.17 293.51 709.21 288.84 C 709.26 285.23 709.26 281.63 709.26 278.02 C 705.83 278.04 702.41 277.99 698.99 277.92 C 684.95 277.72 670.90 277.97 656.86 277.88 C 656.86 283.03 656.87 288.18 656.81 293.33 C 660.57 293.27 664.34 293.23 668.11 293.17 C 667.94 298.78 668.16 304.40 668.44 310.00 C 664.92 309.89 661.40 309.86 657.88 309.87 L 656.67 309.87 C 656.75 317.09 656.75 324.31 656.62 331.52 C 660.40 331.38 664.19 331.38 667.98 331.50 C 668.01 335.14 668.14 338.77 668.34 342.40 L 667.88 342.40 C 660.30 342.52 652.72 342.67 645.14 342.66 C 645.31 345.99 645.41 349.32 645.26 352.66 C 638.97 352.82 632.68 352.69 626.40 352.74 C 626.47 353.41 626.59 354.75 626.66 355.43 C 626.62 357.86 626.53 360.30 626.52 362.75 C 624.01 362.67 621.51 362.62 619.00 362.57 C 618.92 364.30 618.84 366.03 618.82 367.77 C 618.84 369.61 618.94 371.46 619.04 373.31 L 619.07 373.81 L 618.14 373.82 C 614.88 373.81 611.62 373.74 608.37 373.67 L 608.39 373.34 C 608.19 366.54 608.25 359.73 608.18 352.93 C 611.69 353.12 615.20 353.10 618.71 352.90 C 618.63 349.33 618.64 345.76 618.80 342.19 C 622.33 342.43 625.86 342.52 629.40 342.54 C 629.39 338.84 629.37 335.14 629.44 331.45 C 632.89 331.63 636.34 331.64 639.80 331.56 C 639.47 313.45 639.56 295.34 639.30 277.23 C 640.93 277.49 642.58 277.75 644.22 278.00 C 644.28 273.47 644.28 268.93 643.64 264.44 C 647.25 264.36 650.87 264.48 654.49 264.59 C 654.38 262.08 654.33 259.56 654.32 257.05 Z" opacity="1.00" fill="#03071b"/>
</g>
<g id="#030719ff">
<path d="M 834.37 331.46 C 837.82 331.59 841.27 331.57 844.74 331.61 C 848.19 331.66 851.64 331.72 855.11 331.80 C 855.20 335.33 855.26 338.86 855.23 342.40 C 858.91 342.48 862.60 342.51 866.29 342.30 C 866.30 345.77 866.30 349.25 866.31 352.73 C 869.84 352.63 873.37 352.57 876.91 352.58 C 876.80 356.01 876.72 359.45 876.67 362.88 C 880.29 362.72 883.93 362.79 887.55 363.10 C 887.52 366.71 887.58 370.33 887.68 373.95 C 891.39 373.87 895.09 373.80 898.81 373.79 C 898.73 377.48 898.75 381.17 898.78 384.87 C 902.24 384.75 905.70 384.73 909.17 384.80 C 909.19 388.32 909.19 391.84 909.18 395.37 C 912.80 395.37 916.41 395.38 920.03 395.32 C 920.13 398.90 920.19 402.48 920.19 406.07 C 926.99 405.97 933.79 406.24 940.59 405.94 C 940.72 402.34 940.93 398.74 941.20 395.15 C 939.66 395.16 938.13 395.17 936.62 395.17 C 936.56 391.90 936.56 388.64 936.61 385.37 C 935.44 385.15 934.28 384.92 933.14 384.70 C 932.18 384.44 931.23 384.18 930.30 383.90 C 930.31 380.62 930.27 377.34 930.21 374.06 C 927.21 373.98 924.22 373.88 921.23 373.77 C 921.28 373.42 921.39 372.72 921.44 372.37 C 922.12 369.23 922.46 366.01 922.08 362.81 C 925.66 362.62 929.26 362.61 932.85 362.65 C 932.69 366.30 932.57 369.95 932.33 373.60 C 935.53 373.54 938.74 373.51 941.95 373.40 C 942.07 377.30 942.04 381.20 942.07 385.10 C 942.73 385.09 944.05 385.07 944.71 385.05 C 947.31 385.02 949.92 385.04 952.54 385.19 C 952.46 392.17 952.51 399.15 952.53 406.13 C 956.05 406.13 959.58 406.17 963.11 405.96 C 963.13 410.88 963.13 415.80 963.05 420.72 C 958.87 420.66 954.69 420.66 950.51 420.69 C 950.49 424.95 950.53 429.22 950.73 433.48 C 946.48 433.54 942.24 433.65 938.00 433.74 C 937.91 465.22 938.24 496.71 938.00 528.20 C 949.24 528.16 960.48 528.19 971.72 528.10 C 971.70 532.08 971.73 536.06 971.80 540.05 C 975.51 540.03 979.22 540.03 982.94 540.06 C 982.91 543.81 982.87 547.56 982.86 551.31 C 989.05 551.24 995.24 551.20 1001.44 551.01 C 1001.46 554.49 1001.41 557.98 1001.25 561.47 C 1047.50 561.43 1093.74 561.37 1139.99 561.44 C 1142.14 561.42 1144.30 561.79 1146.38 562.41 C 1148.15 562.03 1149.93 561.62 1151.74 561.36 L 1151.13 562.83 C 1150.03 563.91 1148.94 565.00 1147.87 566.09 C 1150.08 566.36 1152.31 566.53 1154.56 566.66 C 1154.80 586.43 1154.18 606.21 1154.71 625.98 C 1155.00 627.65 1153.08 628.55 1153.06 630.21 C 1146.44 630.34 1139.82 630.21 1133.20 630.10 C 1133.04 647.73 1133.33 665.37 1132.98 683.00 C 1129.36 682.93 1125.75 682.78 1122.15 682.55 C 1122.25 685.85 1122.27 689.15 1122.31 692.46 C 905.37 692.41 688.44 692.52 471.51 692.37 C 471.64 689.30 471.74 686.23 471.85 683.16 C 468.65 683.04 465.39 683.31 462.26 682.59 C 460.21 680.06 461.61 676.36 461.37 673.39 L 460.21 673.29 C 460.11 676.55 460.07 679.83 460.16 683.10 C 456.35 683.18 452.53 683.19 448.73 682.98 C 448.54 686.13 448.45 689.28 448.47 692.44 C 429.80 692.75 411.12 692.04 392.45 692.59 C 392.30 689.59 392.24 686.59 392.29 683.59 C 388.75 683.52 385.20 683.47 381.66 683.52 C 381.78 642.83 381.70 602.15 381.70 561.46 C 431.09 561.49 480.49 561.31 529.89 561.47 C 530.12 558.01 530.06 554.54 529.96 551.09 C 531.76 551.00 533.56 550.91 535.37 550.91 C 540.62 551.31 545.89 551.53 551.17 551.48 C 551.18 547.61 551.21 543.75 551.23 539.88 C 566.46 539.91 581.69 539.88 596.91 540.13 C 596.82 536.11 596.78 532.09 596.80 528.07 C 597.34 528.07 598.42 528.07 598.96 528.07 C 602.26 528.06 605.57 528.07 608.89 528.07 C 609.41 496.62 608.51 465.16 609.08 433.71 C 604.95 433.82 600.82 433.79 596.69 433.84 C 596.82 429.42 596.77 425.00 596.89 420.59 C 589.29 420.46 581.70 420.71 574.10 420.70 C 574.11 415.83 574.27 410.96 574.17 406.09 C 577.76 406.12 581.36 406.15 584.96 406.20 C 584.76 399.08 585.17 391.98 585.08 384.87 C 588.82 384.83 592.56 384.79 596.30 384.78 C 596.39 381.01 596.41 377.24 596.44 373.47 C 600.42 373.52 604.40 373.51 608.39 373.34 L 608.37 373.67 C 608.07 377.37 607.80 381.09 607.91 384.81 C 611.22 384.72 614.54 384.65 617.86 384.58 C 617.66 388.13 617.65 391.68 617.66 395.24 C 611.04 395.12 604.42 395.14 597.81 395.12 C 597.81 398.76 597.84 402.40 597.87 406.04 C 638.61 405.92 679.37 406.00 720.12 406.05 C 726.94 406.22 733.78 405.67 740.60 406.23 C 740.49 410.96 740.31 415.69 740.24 420.42 C 736.50 420.44 732.76 420.44 729.03 420.45 C 694.84 420.68 660.66 420.27 626.48 420.54 C 626.65 427.69 626.31 434.85 626.39 442.02 C 626.39 444.35 626.40 446.69 626.46 449.03 C 626.68 474.73 626.56 500.43 626.31 526.13 C 626.25 530.72 626.27 535.31 626.28 539.90 C 657.59 539.94 688.90 539.95 720.21 539.78 C 723.46 539.74 726.71 539.75 729.97 539.82 C 730.20 546.93 730.49 554.05 730.16 561.17 C 746.04 561.65 761.93 561.49 777.81 561.48 C 781.46 561.56 785.11 561.42 788.75 561.11 C 788.69 554.02 788.58 546.93 788.71 539.84 C 788.74 535.93 788.72 532.01 788.70 528.10 C 789.39 527.47 790.09 526.84 790.81 526.23 C 792.66 528.33 795.05 529.83 797.54 531.07 C 798.76 514.09 797.48 497.00 798.29 480.00 C 798.78 481.76 799.28 483.53 799.67 485.34 C 799.74 494.50 799.86 503.68 799.77 512.85 C 799.74 516.81 799.67 520.77 799.67 524.74 C 799.68 529.86 799.78 534.98 799.72 540.10 C 799.62 547.11 799.67 554.12 799.93 561.13 C 814.94 561.63 829.97 561.29 844.99 561.37 C 848.28 561.41 851.57 561.22 854.86 560.98 C 855.50 553.96 856.16 546.91 855.49 539.87 C 855.33 530.83 855.48 521.79 855.42 512.75 C 855.52 503.63 855.31 494.51 855.43 485.39 C 855.49 480.96 855.56 476.53 855.55 472.10 C 855.55 464.47 855.56 456.85 855.41 449.23 C 858.86 449.12 862.32 449.08 865.78 448.96 C 865.99 474.67 865.81 500.40 865.82 526.12 C 865.81 530.49 865.81 534.87 865.96 539.25 L 865.99 540.02 C 866.29 547.10 866.16 554.20 866.07 561.29 C 884.56 561.46 903.07 561.64 921.56 561.28 C 921.66 554.29 921.57 547.30 921.62 540.31 C 921.64 535.50 921.68 530.69 921.63 525.88 C 921.47 495.15 921.61 464.42 921.62 433.69 C 921.65 429.24 921.64 424.79 921.67 420.35 C 917.83 420.46 913.99 420.45 910.16 420.30 C 910.23 415.72 910.23 411.15 910.28 406.57 C 906.51 406.65 902.74 406.78 898.98 406.85 C 898.88 402.84 899.00 398.84 899.19 394.85 C 895.53 394.82 891.88 394.80 888.23 394.90 C 888.26 391.39 888.26 387.89 888.31 384.39 C 884.76 384.48 881.21 384.54 877.67 384.58 C 877.63 380.92 877.56 377.25 877.49 373.59 C 873.89 373.69 870.29 373.75 866.69 373.85 C 866.53 370.15 866.56 366.45 866.81 362.76 C 863.01 362.78 859.22 362.76 855.43 362.76 C 855.46 359.28 855.47 355.80 855.49 352.33 C 852.05 352.36 848.63 352.39 845.21 352.49 L 845.21 352.17 C 845.21 348.85 845.15 345.53 845.09 342.21 C 841.42 342.36 837.74 342.44 834.07 342.33 C 834.15 338.71 834.23 335.08 834.37 331.46 M 402.59 579.64 C 402.55 606.75 402.43 633.87 402.55 660.98 C 410.63 660.82 418.71 660.86 426.79 660.89 C 426.83 651.80 426.91 642.71 426.83 633.63 C 441.95 633.66 457.08 633.85 472.20 633.55 C 472.24 615.59 472.12 597.62 472.20 579.66 C 448.99 579.80 425.79 579.71 402.59 579.64 M 484.29 579.96 C 484.62 606.93 484.48 633.92 484.31 660.90 C 492.39 660.79 500.47 660.95 508.56 660.82 C 508.82 633.84 508.37 606.84 508.72 579.86 C 500.58 579.84 492.43 579.72 484.29 579.96 M 520.77 579.89 C 520.85 590.53 520.61 601.16 520.79 611.80 C 528.25 611.91 535.71 611.50 543.17 611.62 C 543.09 615.98 543.16 620.34 543.07 624.71 C 535.62 624.49 528.16 624.87 520.72 624.57 C 520.87 636.67 520.67 648.77 520.88 660.87 C 528.70 660.92 536.53 660.86 544.36 660.84 C 544.45 653.51 544.83 646.16 544.34 638.84 C 551.52 638.93 558.71 638.65 565.90 638.64 C 565.24 646.01 565.69 653.43 565.40 660.82 C 573.45 661.01 581.50 660.84 589.56 660.71 C 589.87 648.51 589.69 636.30 589.75 624.09 C 584.89 624.49 580.02 624.48 575.16 624.71 C 574.72 620.51 574.76 616.30 574.76 612.09 C 579.68 612.24 584.61 612.22 589.54 611.98 C 589.82 601.23 589.47 590.48 589.51 579.73 C 581.52 579.96 573.53 579.69 565.55 579.81 C 565.55 586.68 565.66 593.56 565.53 600.43 C 558.57 600.42 551.62 600.58 544.67 600.59 C 544.46 593.72 545.23 586.53 544.22 579.87 C 536.40 579.60 528.58 580.03 520.77 579.89 M 601.84 579.88 C 601.97 581.25 602.07 582.64 602.13 584.03 C 602.22 609.65 602.07 635.27 602.20 660.89 C 623.44 660.84 644.66 661.21 665.90 660.84 C 665.77 653.90 666.03 646.97 666.11 640.03 C 652.71 640.49 639.30 639.90 625.90 640.28 C 625.91 636.72 625.91 633.17 625.92 629.62 C 638.45 629.60 650.98 629.51 663.51 629.56 C 663.45 623.59 663.71 617.62 663.51 611.65 C 650.97 611.94 638.41 611.71 625.86 611.85 C 625.94 608.18 625.95 604.52 625.89 600.85 C 639.17 600.88 652.45 600.82 665.73 600.75 C 665.91 593.74 665.44 586.73 665.91 579.74 C 664.15 579.79 662.41 579.85 660.67 579.96 C 658.50 579.72 656.32 579.85 654.15 579.82 C 636.71 579.94 619.28 579.88 601.84 579.88 M 677.35 583.98 C 677.66 609.60 677.30 635.22 677.45 660.84 C 687.31 661.36 697.17 660.77 707.03 660.91 C 716.37 660.92 725.71 660.98 735.05 660.80 C 735.28 653.88 735.15 646.96 735.19 640.04 C 724.10 640.24 713.01 639.99 701.92 640.13 C 701.91 634.08 701.84 628.04 701.97 622.00 C 702.50 607.90 701.57 593.81 701.94 579.72 C 698.82 579.79 695.70 579.76 692.60 580.01 C 687.74 579.56 682.85 580.24 678.00 579.65 C 677.04 580.89 677.43 582.52 677.35 583.98 M 747.04 579.83 C 747.15 606.83 746.87 633.83 747.08 660.83 C 755.15 660.79 763.22 660.97 771.29 660.81 C 771.28 652.12 771.50 643.42 771.21 634.73 C 779.14 634.76 787.08 634.77 795.03 634.78 C 795.13 643.45 794.68 652.12 795.12 660.79 C 802.99 661.37 810.86 660.78 818.74 660.86 C 819.11 642.55 818.51 624.22 819.07 605.91 C 818.82 597.21 818.55 588.48 819.19 579.79 C 811.07 579.75 802.96 579.88 794.85 579.87 C 794.98 590.51 794.76 601.16 794.86 611.80 C 786.95 612.53 779.03 611.52 771.11 611.91 C 771.40 601.20 771.19 590.48 771.40 579.77 C 763.28 579.84 755.16 579.92 747.04 579.83 M 831.04 579.71 C 831.15 606.76 830.95 633.82 831.17 660.88 C 855.66 660.90 880.14 661.04 904.62 660.88 C 904.75 633.75 904.63 606.61 904.51 579.49 C 896.44 579.84 888.37 579.77 880.30 579.87 C 880.42 599.94 880.38 620.01 880.49 640.07 C 872.07 640.05 863.65 640.06 855.23 640.10 C 855.45 619.93 855.10 599.76 855.31 579.59 C 847.22 579.82 839.13 579.85 831.04 579.71 M 916.59 579.82 C 916.75 596.42 916.88 613.02 916.49 629.61 C 929.78 629.58 943.08 629.41 956.38 629.69 C 956.34 633.16 956.33 636.63 956.35 640.11 C 943.10 640.20 929.82 639.78 916.58 640.45 C 916.79 647.24 916.78 654.04 916.73 660.84 C 930.36 660.81 944.00 661.25 957.62 660.77 C 965.06 661.09 972.52 660.86 979.98 660.79 C 980.03 658.95 980.16 657.11 980.09 655.28 C 980.18 640.73 979.98 626.18 980.15 611.63 C 966.89 612.00 953.63 611.66 940.37 611.75 C 940.43 608.06 940.43 604.36 940.23 600.67 C 949.49 600.94 958.76 600.86 968.02 600.77 C 971.99 600.76 975.96 600.73 979.93 600.77 C 980.04 595.70 980.30 590.61 979.81 585.56 C 980.12 583.65 980.10 581.71 980.16 579.79 C 958.97 579.93 937.78 579.84 916.59 579.82 M 992.15 579.84 C 992.04 606.86 992.19 633.89 992.08 660.92 L 992.62 660.85 C 999.04 661.37 1005.50 660.92 1011.95 661.06 C 1025.98 660.92 1040.01 661.33 1054.04 660.79 C 1054.30 655.73 1054.37 650.65 1054.08 645.59 C 1054.25 643.77 1054.15 641.95 1054.17 640.15 C 1041.38 640.25 1028.59 640.17 1015.81 640.33 C 1015.80 636.77 1015.80 633.21 1015.83 629.65 C 1027.65 629.66 1039.46 629.59 1051.27 629.57 C 1051.28 623.61 1051.28 617.65 1051.34 611.69 C 1039.47 611.82 1027.59 611.84 1015.72 611.81 C 1015.75 608.12 1015.79 604.44 1015.78 600.76 C 1028.34 600.84 1040.91 600.84 1053.48 600.58 L 1053.71 600.67 C 1053.71 593.73 1053.48 586.79 1053.74 579.86 C 1050.03 579.84 1046.32 579.90 1042.63 579.90 C 1025.80 579.59 1008.97 580.06 992.15 579.84 M 1065.28 580.03 C 1065.29 586.94 1065.37 593.85 1065.36 600.76 C 1072.86 600.85 1080.36 600.88 1087.86 600.83 C 1087.75 620.85 1087.66 640.87 1087.88 660.89 C 1095.96 661.34 1104.05 660.74 1112.14 660.79 C 1112.13 640.79 1112.24 620.79 1112.15 600.80 C 1119.51 600.81 1126.88 600.60 1134.25 600.80 C 1134.22 598.74 1134.19 596.70 1134.12 594.66 C 1134.34 589.71 1133.99 584.75 1134.09 579.80 C 1130.40 579.85 1126.71 579.89 1123.03 579.90 C 1103.78 579.84 1084.53 579.78 1065.28 580.03 Z" opacity="1.00" fill="#030719"/>
</g>
<g id="#d3d7e1ff">
<path d="M 656.86 277.88 C 670.90 277.97 684.95 277.72 698.99 277.92 C 699.05 286.30 698.02 294.87 699.62 303.13 L 700.67 303.15 C 700.32 305.62 699.97 308.10 699.63 310.57 C 696.08 310.42 692.52 310.29 688.97 310.21 C 689.15 299.59 688.77 288.98 688.60 278.36 C 678.19 278.01 667.78 278.43 657.37 278.41 C 657.18 283.11 657.16 287.82 657.39 292.52 C 661.30 292.46 665.23 292.54 669.11 293.18 L 668.11 293.17 C 664.34 293.23 660.57 293.27 656.81 293.33 C 656.87 288.18 656.86 283.03 656.86 277.88 Z" opacity="1.00" fill="#d3d7e1"/>
</g>
<g id="#c5cbd3ff">
<path d="M 698.99 277.92 C 702.41 277.99 705.83 278.04 709.26 278.02 C 709.26 281.63 709.26 285.23 709.21 288.84 C 708.50 288.97 707.07 289.23 706.36 289.36 C 704.43 291.70 702.17 293.81 700.59 296.42 C 699.99 298.61 699.92 300.89 699.62 303.13 C 698.02 294.87 699.05 286.30 698.99 277.92 Z" opacity="1.00" fill="#c5cbd3"/>
</g>
<g id="#9aa2b1ff">
<path d="M 657.37 278.41 C 667.78 278.43 678.19 278.01 688.60 278.36 C 688.77 288.98 689.15 299.59 688.97 310.21 C 685.84 310.21 682.71 310.16 679.59 310.11 L 679.27 310.10 C 679.37 304.65 679.30 299.19 679.09 293.74 C 675.75 293.69 672.42 293.53 669.11 293.18 C 665.23 292.54 661.30 292.46 657.39 292.52 C 657.16 287.82 657.18 283.11 657.37 278.41 Z" opacity="1.00" fill="#9aa2b1"/>
</g>
<g id="#b6bec9ff">
<path d="M 706.36 289.36 C 707.07 289.23 708.50 288.97 709.21 288.84 C 709.17 293.51 709.27 298.17 709.21 302.84 C 706.36 302.98 703.52 303.14 700.67 303.15 L 699.62 303.13 C 699.92 300.89 699.99 298.61 700.59 296.42 C 702.17 293.81 704.43 291.70 706.36 289.36 Z" opacity="1.00" fill="#b6bec9"/>
</g>
<g id="#6f7686ff">
<path d="M 668.11 293.17 L 669.11 293.18 C 672.42 293.53 675.75 293.69 679.09 293.74 C 679.30 299.19 679.37 304.65 679.27 310.10 C 675.74 310.08 672.21 310.10 668.68 310.01 L 668.44 310.00 C 668.16 304.40 667.94 298.78 668.11 293.17 Z" opacity="1.00" fill="#6f7686"/>
</g>
<g id="#a72a10ff">
<path d="M 719.62 293.11 C 760.83 293.29 802.04 293.01 843.26 293.17 C 836.33 294.21 829.34 293.21 822.40 293.84 C 822.58 299.06 822.79 304.30 822.55 309.53 C 822.27 309.62 821.72 309.81 821.44 309.91 C 817.25 310.14 813.05 309.81 808.86 309.89 C 808.84 304.56 808.87 299.24 808.85 293.91 C 791.89 293.38 774.91 293.62 757.95 293.75 C 752.49 293.92 747.02 293.91 741.57 294.10 C 741.95 299.42 742.80 304.98 740.90 310.12 C 737.32 310.16 733.74 310.20 730.16 310.21 C 729.99 313.87 729.91 317.52 729.93 321.18 C 726.56 321.31 723.19 321.31 719.83 321.21 C 719.97 316.24 720.17 311.26 719.73 306.32 C 719.88 304.06 717.22 303.60 715.74 302.65 C 717.00 302.62 718.27 302.59 719.55 302.55 C 719.57 299.40 719.58 296.26 719.62 293.11 Z" opacity="1.00" fill="#a72a10"/>
</g>
<g id="#d2390fff">
<path d="M 843.26 293.17 C 843.75 293.13 844.72 293.05 845.21 293.02 C 845.21 293.53 845.22 294.55 845.22 295.06 C 841.52 295.00 837.82 295.02 834.13 295.14 C 834.25 300.17 834.13 305.20 834.41 310.22 C 834.79 313.86 834.99 317.53 834.58 321.18 C 830.73 321.18 826.88 321.19 823.04 321.20 C 822.85 317.41 823.64 313.26 821.44 309.91 C 821.72 309.81 822.27 309.62 822.55 309.53 C 822.79 304.30 822.58 299.06 822.40 293.84 C 829.34 293.21 836.33 294.21 843.26 293.17 Z" opacity="1.00" fill="#d2390f"/>
</g>
<g id="#b22e10ff">
<path d="M 741.57 294.10 C 747.02 293.91 752.49 293.92 757.95 293.75 C 758.21 299.15 758.03 304.55 757.90 309.95 C 752.23 309.84 746.56 310.14 740.90 310.12 C 742.80 304.98 741.95 299.42 741.57 294.10 Z" opacity="1.00" fill="#b22e10"/>
</g>
<g id="#d83f10ff">
<path d="M 757.95 293.75 C 774.91 293.62 791.89 293.38 808.85 293.91 C 808.87 299.24 808.84 304.56 808.86 309.89 C 805.71 309.92 802.57 310.15 799.44 310.29 C 785.61 309.32 771.74 310.75 757.90 309.95 C 758.03 304.55 758.21 299.15 757.95 293.75 Z" opacity="1.00" fill="#d83f10"/>
</g>
<g id="#c43512ff">
<path d="M 834.13 295.14 C 837.82 295.02 841.52 295.00 845.22 295.06 C 845.23 297.44 845.21 299.83 845.10 302.22 C 844.96 304.79 844.82 307.37 844.72 309.96 C 841.28 310.10 837.84 310.17 834.41 310.22 C 834.13 305.20 834.25 300.17 834.13 295.14 Z" opacity="1.00" fill="#c43512"/>
</g>
<g id="#561818ff">
<path d="M 845.10 302.22 C 848.51 301.99 851.93 301.83 855.36 301.74 C 855.34 304.39 855.31 307.05 855.29 309.71 C 851.76 309.70 848.23 309.80 844.72 309.96 C 844.82 307.37 844.96 304.79 845.10 302.22 Z" opacity="1.00" fill="#561818"/>
</g>
<g id="#ebe6eeff">
<path d="M 700.67 303.15 C 703.52 303.14 706.36 302.98 709.21 302.84 L 709.60 302.82 C 709.43 312.38 709.47 321.94 709.64 331.49 C 709.51 331.50 709.24 331.52 709.11 331.52 C 702.60 331.69 696.07 332.18 689.59 331.48 C 689.38 331.46 688.96 331.41 688.75 331.39 C 689.02 324.33 688.76 317.27 688.97 310.21 C 692.52 310.29 696.08 310.42 699.63 310.57 C 699.97 308.10 700.32 305.62 700.67 303.15 Z" opacity="1.00" fill="#ebe6ee"/>
</g>
<g id="#9b2410ff">
<path d="M 709.60 302.82 C 711.64 302.74 713.69 302.66 715.74 302.65 C 717.22 303.60 719.88 304.06 719.73 306.32 C 720.17 311.26 719.97 316.24 719.83 321.21 C 719.68 324.54 719.66 327.88 719.72 331.22 C 716.36 331.32 713.00 331.37 709.64 331.49 C 709.47 321.94 709.43 312.38 709.60 302.82 Z" opacity="1.00" fill="#9b2410"/>
</g>
<g id="#afb8c6ff">
<path d="M 656.67 309.87 L 657.88 309.87 C 657.55 316.63 657.74 323.40 658.01 330.16 C 661.34 330.17 664.67 330.07 668.00 329.98 C 671.95 329.92 675.90 329.98 679.85 329.84 C 680.33 323.25 679.40 316.69 679.59 310.11 C 682.71 310.16 685.84 310.21 688.97 310.21 C 688.76 317.27 689.02 324.33 688.75 331.39 C 685.64 331.16 682.54 331.47 679.43 331.57 C 675.61 331.63 671.79 331.58 667.98 331.50 C 664.19 331.38 660.40 331.38 656.62 331.52 C 656.75 324.31 656.75 317.09 656.67 309.87 Z" opacity="1.00" fill="#afb8c6"/>
</g>
<g id="#949fb1ff">
<path d="M 657.88 309.87 C 661.40 309.86 664.92 309.89 668.44 310.00 L 668.68 310.01 C 667.61 316.61 668.24 323.32 668.00 329.98 C 664.67 330.07 661.34 330.17 658.01 330.16 C 657.74 323.40 657.55 316.63 657.88 309.87 Z" opacity="1.00" fill="#949fb1"/>
</g>
<g id="#a6aebeff">
<path d="M 668.68 310.01 C 672.21 310.10 675.74 310.08 679.27 310.10 L 679.59 310.11 C 679.40 316.69 680.33 323.25 679.85 329.84 C 675.90 329.98 671.95 329.92 668.00 329.98 C 668.24 323.32 667.61 316.61 668.68 310.01 Z" opacity="1.00" fill="#a6aebe"/>
</g>
<g id="#db420fff">
<path d="M 730.16 310.21 C 733.74 310.20 737.32 310.16 740.90 310.12 C 740.10 313.83 739.99 317.64 739.97 321.43 C 736.62 321.18 733.27 321.05 729.93 321.18 C 729.91 317.52 729.99 313.87 730.16 310.21 Z" opacity="1.00" fill="#db420f"/>
</g>
<g id="#e84d10ff">
<path d="M 740.90 310.12 C 746.56 310.14 752.23 309.84 757.90 309.95 C 771.74 310.75 785.61 309.32 799.44 310.29 C 801.58 310.69 803.71 311.15 805.86 311.56 C 804.60 311.84 803.35 312.13 802.12 312.42 C 802.04 314.87 802.02 317.33 802.06 319.79 C 803.33 321.28 804.57 322.82 805.78 324.38 C 803.67 325.82 801.60 327.33 799.64 328.97 C 803.53 330.40 807.69 330.15 811.76 330.03 C 811.73 330.41 811.67 331.17 811.64 331.55 C 808.17 331.65 804.70 331.58 801.25 331.75 C 797.59 331.93 793.93 331.94 790.27 331.84 C 790.06 328.36 789.83 324.89 789.59 321.41 C 786.42 321.13 783.24 321.00 780.07 321.01 C 779.89 324.59 779.80 328.17 779.78 331.75 C 773.29 331.67 766.80 331.98 760.32 332.26 C 760.27 335.46 760.14 338.66 759.93 341.85 C 747.66 342.51 735.37 342.21 723.10 342.19 C 722.87 345.55 722.80 348.92 722.89 352.29 C 718.51 352.29 714.14 352.31 709.77 352.33 C 706.55 352.31 703.29 352.55 700.14 351.87 C 698.06 349.25 699.15 345.49 698.85 342.38 L 699.77 342.36 C 703.11 342.27 706.44 342.10 709.78 341.93 C 709.66 338.45 709.37 334.99 709.11 331.52 C 709.24 331.52 709.51 331.50 709.64 331.49 C 713.00 331.37 716.36 331.32 719.72 331.22 C 719.66 327.88 719.68 324.54 719.83 321.21 C 723.19 321.31 726.56 321.31 729.93 321.18 C 733.27 321.05 736.62 321.18 739.97 321.43 C 739.99 317.64 740.10 313.83 740.90 310.12 Z" opacity="1.00" fill="#e84d10"/>
</g>
<g id="#df4410ff">
<path d="M 799.44 310.29 C 802.57 310.15 805.71 309.92 808.86 309.89 C 813.05 309.81 817.25 310.14 821.44 309.91 C 823.64 313.26 822.85 317.41 823.04 321.20 C 819.40 321.23 815.75 321.22 812.12 321.22 C 811.99 324.16 811.90 327.10 811.76 330.03 C 807.69 330.15 803.53 330.40 799.64 328.97 C 801.60 327.33 803.67 325.82 805.78 324.38 C 804.57 322.82 803.33 321.28 802.06 319.79 C 802.02 317.33 802.04 314.87 802.12 312.42 C 803.35 312.13 804.60 311.84 805.86 311.56 C 803.71 311.15 801.58 310.69 799.44 310.29 Z" opacity="1.00" fill="#df4410"/>
</g>
<g id="#dc4311ff">
<path d="M 834.41 310.22 C 837.84 310.17 841.28 310.10 844.72 309.96 C 848.23 309.80 851.76 309.70 855.29 309.71 C 855.29 313.43 855.27 317.15 855.24 320.87 C 858.64 321.04 862.04 321.09 865.45 321.01 C 865.59 317.98 865.62 314.95 865.57 311.92 C 864.73 311.21 863.89 310.51 863.07 309.81 C 863.91 309.79 865.59 309.76 866.44 309.75 C 866.46 313.46 866.44 317.18 866.42 320.90 C 866.40 324.39 866.48 327.88 866.57 331.38 C 869.66 331.50 872.77 331.57 875.88 331.60 C 876.29 327.95 876.41 324.27 876.24 320.59 L 877.51 320.55 C 877.39 324.20 877.41 327.85 877.57 331.50 C 881.17 331.47 884.78 331.46 888.39 331.49 C 888.23 335.13 888.15 338.77 887.96 342.41 C 887.80 345.49 887.68 348.58 887.64 351.67 C 884.19 352.15 880.71 352.42 877.23 352.10 C 877.20 349.00 877.15 345.90 877.08 342.80 C 873.50 342.40 869.89 342.22 866.29 342.30 C 866.22 338.91 866.10 335.52 865.94 332.14 C 862.32 332.00 858.71 331.88 855.11 331.80 C 851.64 331.72 848.19 331.66 844.74 331.61 C 844.65 328.20 844.60 324.80 844.59 321.40 C 841.25 321.33 837.91 321.26 834.58 321.18 C 834.99 317.53 834.79 313.86 834.41 310.22 Z" opacity="1.00" fill="#dc4311"/>
</g>
<g id="#97200eff">
<path d="M 855.29 309.71 C 857.88 309.79 860.47 309.83 863.07 309.81 C 863.89 310.51 864.73 311.21 865.57 311.92 C 865.62 314.95 865.59 317.98 865.45 321.01 C 862.04 321.09 858.64 321.04 855.24 320.87 C 855.27 317.15 855.29 313.43 855.29 309.71 Z" opacity="1.00" fill="#97200e"/>
</g>
<g id="#d23e11ff">
<path d="M 780.07 321.01 C 783.24 321.00 786.42 321.13 789.59 321.41 C 789.83 324.89 790.06 328.36 790.27 331.84 C 793.93 331.94 797.59 331.93 801.25 331.75 C 801.40 335.21 801.35 338.69 801.15 342.15 C 797.36 342.41 793.56 342.47 789.78 342.30 C 789.62 345.55 789.56 348.81 789.62 352.07 C 786.33 352.29 783.05 352.50 779.77 352.61 C 776.82 352.70 773.88 352.80 770.95 352.93 C 770.59 356.15 770.74 359.43 771.83 362.52 C 771.58 362.53 771.06 362.56 770.81 362.57 C 767.46 362.70 764.11 362.79 760.77 362.86 C 760.68 366.50 760.76 370.15 761.12 373.78 C 757.71 373.70 754.31 373.74 750.91 373.86 C 750.86 377.44 750.82 381.02 750.77 384.60 C 747.44 384.62 744.10 384.64 740.78 384.68 C 733.96 384.77 727.15 384.98 720.35 385.22 C 720.29 388.50 720.20 391.78 720.11 395.06 C 685.96 395.32 651.80 394.71 617.66 395.24 C 617.65 391.68 617.66 388.13 617.86 384.58 C 618.08 381.00 618.17 377.40 618.14 373.82 L 619.07 373.81 C 633.92 373.82 648.77 373.46 663.61 373.76 C 676.01 373.88 688.41 373.50 700.80 373.85 C 710.19 374.21 719.62 374.13 729.02 373.79 C 736.25 372.77 743.55 373.07 750.83 372.97 C 750.82 369.46 750.98 365.96 751.28 362.47 C 754.16 362.24 757.06 362.02 759.96 361.82 C 760.18 358.60 760.20 355.37 760.02 352.16 C 753.42 352.86 746.76 353.42 740.15 352.60 C 734.41 352.03 728.64 352.40 722.89 352.29 C 722.80 348.92 722.87 345.55 723.10 342.19 C 735.37 342.21 747.66 342.51 759.93 341.85 C 760.14 338.66 760.27 335.46 760.32 332.26 C 766.80 331.98 773.29 331.67 779.78 331.75 C 779.80 328.17 779.89 324.59 780.07 321.01 Z" opacity="1.00" fill="#d23e11"/>
</g>
<g id="#9b240eff">
<path d="M 812.12 321.22 C 815.75 321.22 819.40 321.23 823.04 321.20 C 823.06 324.58 823.00 327.97 822.89 331.35 L 822.64 331.36 C 819.13 331.52 815.63 331.63 812.14 331.74 C 812.15 335.26 812.14 338.78 812.11 342.30 C 808.56 342.49 805.01 342.58 801.47 342.58 C 801.48 345.92 801.49 349.25 801.49 352.59 L 800.86 352.62 C 797.11 352.79 793.36 352.61 789.62 352.42 L 789.62 352.07 C 789.56 348.81 789.62 345.55 789.78 342.30 C 793.56 342.47 797.36 342.41 801.15 342.15 C 801.35 338.69 801.40 335.21 801.25 331.75 C 804.70 331.58 808.17 331.65 811.64 331.55 C 811.67 331.17 811.73 330.41 811.76 330.03 C 811.90 327.10 811.99 324.16 812.12 321.22 Z" opacity="1.00" fill="#9b240e"/>
</g>
<g id="#04061bff">
<path d="M 823.04 321.20 C 826.88 321.19 830.73 321.18 834.58 321.18 C 834.48 324.56 834.52 327.95 834.39 331.34 L 833.11 331.42 C 829.70 331.32 826.29 331.20 822.89 331.35 C 823.00 327.97 823.06 324.58 823.04 321.20 Z" opacity="1.00" fill="#04061b"/>
</g>
<g id="#931f0dff">
<path d="M 834.58 321.18 C 837.91 321.26 841.25 321.33 844.59 321.40 C 844.60 324.80 844.65 328.20 844.74 331.61 C 841.27 331.57 837.82 331.59 834.37 331.46 C 834.05 331.45 833.42 331.43 833.11 331.42 L 834.39 331.34 C 834.52 327.95 834.48 324.56 834.58 321.18 Z" opacity="1.00" fill="#931f0d"/>
</g>
<g id="#ae2e0eff">
<path d="M 866.57 331.38 C 866.48 327.88 866.40 324.39 866.42 320.90 C 869.69 320.81 872.96 320.72 876.24 320.59 C 876.41 324.27 876.29 327.95 875.88 331.60 C 872.77 331.57 869.66 331.50 866.57 331.38 Z" opacity="1.00" fill="#ae2e0e"/>
</g>
<g id="#c7c4ceff">
<path d="M 679.43 331.57 C 682.54 331.47 685.64 331.16 688.75 331.39 C 688.96 331.41 689.38 331.46 689.59 331.48 C 689.64 334.84 689.66 338.21 689.83 341.57 L 689.80 342.31 C 686.38 342.24 682.96 342.33 679.56 342.41 L 679.55 342.02 C 679.52 338.53 679.47 335.05 679.43 331.57 Z" opacity="1.00" fill="#c7c4ce"/>
</g>
<g id="#866711ff">
<path d="M 822.89 331.35 C 826.29 331.20 829.70 331.32 833.11 331.42 C 833.42 331.43 834.05 331.45 834.37 331.46 C 834.23 335.08 834.15 338.71 834.07 342.33 C 830.27 342.21 826.48 342.20 822.70 342.27 C 822.74 338.63 822.69 335.00 822.64 331.36 L 822.89 331.35 Z" opacity="1.00" fill="#866711"/>
</g>
<g id="#481922ff">
<path d="M 667.98 331.50 C 671.79 331.58 675.61 331.63 679.43 331.57 C 679.47 335.05 679.52 338.53 679.55 342.02 C 675.82 342.30 672.08 342.42 668.34 342.40 C 668.14 338.77 668.01 335.14 667.98 331.50 Z" opacity="1.00" fill="#481922"/>
</g>
<g id="#c73711ff">
<path d="M 689.59 331.48 C 696.07 332.18 702.60 331.69 709.11 331.52 C 709.37 334.99 709.66 338.45 709.78 341.93 C 706.44 342.10 703.11 342.27 699.77 342.36 C 699.63 339.12 699.70 335.85 699.10 332.66 C 696.40 332.15 693.55 332.01 690.92 332.90 C 690.27 335.74 690.17 338.68 689.83 341.57 C 689.66 338.21 689.64 334.84 689.59 331.48 Z" opacity="1.00" fill="#c73711"/>
</g>
<g id="#04081eff">
<path d="M 812.14 331.74 C 815.63 331.63 819.13 331.52 822.64 331.36 C 822.69 335.00 822.74 338.63 822.70 342.27 C 819.25 342.43 815.80 342.46 812.36 342.44 C 812.21 345.68 812.06 348.93 811.87 352.18 C 808.40 352.24 804.94 352.37 801.49 352.59 C 801.49 349.25 801.48 345.92 801.47 342.58 C 805.01 342.58 808.56 342.49 812.11 342.30 C 812.14 338.78 812.15 335.26 812.14 331.74 Z" opacity="1.00" fill="#04081e"/>
</g>
<g id="#c4350bff">
<path d="M 855.11 331.80 C 858.71 331.88 862.32 332.00 865.94 332.14 C 866.10 335.52 866.22 338.91 866.29 342.30 C 862.60 342.51 858.91 342.48 855.23 342.40 C 855.26 338.86 855.20 335.33 855.11 331.80 Z" opacity="1.00" fill="#c4350b"/>
</g>
<g id="#9d6264ff">
<path d="M 690.92 332.90 C 693.55 332.01 696.40 332.15 699.10 332.66 C 699.70 335.85 699.63 339.12 699.77 342.36 L 698.85 342.38 C 695.83 342.44 692.81 342.38 689.80 342.31 L 689.83 341.57 C 690.17 338.68 690.27 335.74 690.92 332.90 Z" opacity="1.00" fill="#9d6264"/>
</g>
<g id="#992710ff">
<path d="M 668.34 342.40 C 672.08 342.42 675.82 342.30 679.55 342.02 L 679.56 342.41 C 679.57 345.79 679.59 349.18 679.63 352.56 C 676.53 352.64 673.44 352.80 670.36 353.06 C 670.36 356.27 670.35 359.48 670.36 362.69 C 680.49 362.87 690.62 362.58 700.75 362.97 C 700.67 366.60 700.69 370.22 700.80 373.85 C 688.41 373.50 676.01 373.88 663.61 373.76 C 663.45 370.17 663.30 366.58 663.14 363.00 C 660.83 362.91 658.53 362.83 656.23 362.80 L 656.24 362.28 C 656.56 359.21 656.86 356.14 657.00 353.06 C 660.65 352.91 664.31 352.82 667.98 352.77 C 668.32 349.32 668.29 345.84 667.88 342.40 L 668.34 342.40 Z" opacity="1.00" fill="#992710"/>
</g>
<g id="#d13b10ff">
<path d="M 689.80 342.31 C 692.81 342.38 695.83 342.44 698.85 342.38 C 699.15 345.49 698.06 349.25 700.14 351.87 C 703.29 352.55 706.55 352.31 709.77 352.33 C 709.69 355.77 709.74 359.22 709.90 362.66 C 706.84 362.74 703.79 362.99 700.75 362.97 C 690.62 362.58 680.49 362.87 670.36 362.69 C 670.35 359.48 670.36 356.27 670.36 353.06 C 673.44 352.80 676.53 352.64 679.63 352.56 C 679.59 349.18 679.57 345.79 679.56 342.41 C 682.96 342.33 686.38 342.24 689.80 342.31 Z" opacity="1.00" fill="#d13b10"/>
</g>
<g id="#977711ff">
<path d="M 812.36 342.44 C 815.80 342.46 819.25 342.43 822.70 342.27 C 822.59 345.57 822.64 348.87 822.76 352.17 C 819.18 352.35 815.61 352.52 812.04 352.60 C 812.10 356.02 812.09 359.45 811.99 362.87 C 808.25 362.88 804.50 362.89 800.76 362.72 C 800.84 359.35 800.87 355.98 800.86 352.62 L 801.49 352.59 C 804.94 352.37 808.40 352.24 811.87 352.18 C 812.06 348.93 812.21 345.68 812.36 342.44 Z" opacity="1.00" fill="#977711"/>
</g>
<g id="#dcb31cff">
<path d="M 822.70 342.27 C 826.48 342.20 830.27 342.21 834.07 342.33 C 834.08 345.62 834.09 348.91 834.09 352.21 C 837.79 352.29 841.50 352.29 845.21 352.17 L 845.21 352.49 C 845.15 355.92 845.10 359.34 845.07 362.77 C 841.45 362.70 837.83 362.68 834.22 362.69 C 834.24 359.25 834.08 355.81 833.77 352.39 C 830.08 352.33 826.39 352.43 822.72 352.68 C 822.67 355.99 822.61 359.30 822.51 362.60 C 819.01 362.81 815.50 362.90 811.99 362.87 C 812.09 359.45 812.10 356.02 812.04 352.60 C 815.61 352.52 819.18 352.35 822.76 352.17 C 822.64 348.87 822.59 345.57 822.70 342.27 Z" opacity="1.00" fill="#dcb31c"/>
</g>
<g id="#927414ff">
<path d="M 834.07 342.33 C 837.74 342.44 841.42 342.36 845.09 342.21 C 845.15 345.53 845.21 348.85 845.21 352.17 C 841.50 352.29 837.79 352.29 834.09 352.21 C 834.09 348.91 834.08 345.62 834.07 342.33 Z" opacity="1.00" fill="#927414"/>
</g>
<g id="#b9300dff">
<path d="M 866.29 342.30 C 869.89 342.22 873.50 342.40 877.08 342.80 C 877.15 345.90 877.20 349.00 877.23 352.10 C 880.71 352.42 884.19 352.15 887.64 351.67 C 890.87 351.67 894.08 352.15 897.31 352.40 C 894.21 352.62 891.13 352.96 888.04 353.20 C 887.99 356.25 887.95 359.30 887.92 362.36 C 891.15 362.83 894.43 362.92 897.67 363.38 C 899.87 366.22 898.53 370.41 898.81 373.79 C 895.09 373.80 891.39 373.87 887.68 373.95 C 887.58 370.33 887.52 366.71 887.55 363.10 C 883.93 362.79 880.29 362.72 876.67 362.88 C 876.72 359.45 876.80 356.01 876.91 352.58 C 873.37 352.57 869.84 352.63 866.31 352.73 C 866.30 349.25 866.30 345.77 866.29 342.30 Z" opacity="1.00" fill="#b9300d"/>
</g>
<g id="#a22812ff">
<path d="M 887.96 342.41 C 891.69 342.41 895.42 342.32 899.16 342.18 C 899.11 345.59 899.08 349.01 899.04 352.43 C 898.61 352.43 897.75 352.41 897.31 352.40 C 894.08 352.15 890.87 351.67 887.64 351.67 C 887.68 348.58 887.80 345.49 887.96 342.41 Z" opacity="1.00" fill="#a22812"/>
</g>
<g id="#781710ff">
<path d="M 645.14 342.66 C 652.72 342.67 660.30 342.52 667.88 342.40 C 668.29 345.84 668.32 349.32 667.98 352.77 C 664.31 352.82 660.65 352.91 657.00 353.06 C 656.86 356.14 656.56 359.21 656.24 362.28 C 656.07 359.17 655.88 356.06 655.79 352.96 C 652.28 352.76 648.76 352.67 645.26 352.66 C 645.41 349.32 645.31 345.99 645.14 342.66 Z" opacity="1.00" fill="#781710"/>
</g>
<g id="#a22c11ff">
<path d="M 709.77 352.33 C 714.14 352.31 718.51 352.29 722.89 352.29 C 728.64 352.40 734.41 352.03 740.15 352.60 C 740.02 355.97 739.91 359.34 739.81 362.71 C 729.84 362.64 719.87 362.71 709.90 362.66 C 709.74 359.22 709.69 355.77 709.77 352.33 Z" opacity="1.00" fill="#a22c11"/>
</g>
<g id="#df4611ff">
<path d="M 740.15 352.60 C 746.76 353.42 753.42 352.86 760.02 352.16 C 760.20 355.37 760.18 358.60 759.96 361.82 C 757.06 362.02 754.16 362.24 751.28 362.47 C 750.98 365.96 750.82 369.46 750.83 372.97 C 743.55 373.07 736.25 372.77 729.02 373.79 C 719.62 374.13 710.19 374.21 700.80 373.85 C 700.69 370.22 700.67 366.60 700.75 362.97 C 703.79 362.99 706.84 362.74 709.90 362.66 C 719.87 362.71 729.84 362.64 739.81 362.71 C 739.91 359.34 740.02 355.97 740.15 352.60 Z" opacity="1.00" fill="#df4611"/>
</g>
<g id="#8f220eff">
<path d="M 779.77 352.61 C 783.05 352.50 786.33 352.29 789.62 352.07 L 789.62 352.42 C 789.64 355.86 789.62 359.31 789.62 362.76 C 783.36 363.06 777.04 363.48 770.81 362.57 C 771.06 362.56 771.58 362.53 771.83 362.52 C 774.77 362.30 777.72 362.20 780.67 362.22 C 780.37 359.01 780.06 355.81 779.77 352.61 Z" opacity="1.00" fill="#8f220e"/>
</g>
<g id="#fedf32ff">
<path d="M 822.72 352.68 C 826.39 352.43 830.08 352.33 833.77 352.39 C 834.08 355.81 834.24 359.25 834.22 362.69 C 837.83 362.68 841.45 362.70 845.07 362.77 C 844.89 366.46 844.86 370.16 844.98 373.86 C 848.44 373.87 851.91 373.82 855.39 373.70 L 855.78 373.69 C 855.27 377.39 855.13 381.13 855.25 384.86 C 858.98 384.98 862.72 384.93 866.45 384.70 L 866.71 384.69 C 866.22 388.05 866.09 391.46 866.22 394.86 C 869.76 395.01 873.31 395.08 876.86 395.08 C 877.25 395.36 878.03 395.93 878.42 396.21 C 876.94 399.56 876.83 403.24 877.10 406.84 C 880.75 407.07 884.41 407.10 888.06 406.82 C 888.49 406.79 889.35 406.75 889.77 406.73 C 886.95 410.29 887.55 415.33 888.64 419.44 C 892.07 420.03 895.57 420.10 899.02 420.66 C 898.86 425.02 898.89 429.39 899.08 433.75 C 902.77 433.85 906.47 433.88 910.17 433.86 C 909.93 464.59 909.84 495.33 910.14 526.05 C 895.60 526.00 881.06 526.26 866.53 526.00 C 869.94 525.12 873.45 524.87 876.96 524.89 C 876.99 489.64 877.08 454.39 876.87 419.15 C 873.22 419.00 869.57 418.96 865.94 419.01 C 840.17 418.92 814.41 418.74 788.65 418.99 C 788.42 422.66 788.37 426.35 788.94 429.99 C 788.66 429.70 788.09 429.10 787.81 428.80 C 787.83 425.66 787.73 422.52 787.55 419.39 C 784.41 419.21 781.11 418.76 778.15 420.08 C 777.07 423.34 777.75 426.85 777.68 430.22 C 777.61 462.14 777.54 494.06 777.67 525.97 C 765.40 526.15 753.13 526.10 740.86 526.12 C 740.99 520.85 741.39 515.55 740.59 510.31 C 739.80 505.49 740.49 500.55 739.40 495.77 C 739.01 499.20 738.79 502.64 738.55 506.09 C 737.87 503.07 737.18 499.95 735.09 497.56 C 733.77 497.92 732.45 498.28 731.14 498.63 C 730.61 503.94 731.81 509.48 729.82 514.59 C 729.64 495.36 729.43 476.12 729.63 456.89 C 729.77 450.41 729.38 443.92 729.94 437.45 C 731.72 443.86 730.33 450.55 731.07 457.09 C 734.04 456.89 736.99 456.51 739.90 455.85 C 740.39 449.03 740.32 442.20 740.04 435.38 C 738.23 435.05 736.44 434.72 734.64 434.46 C 740.05 433.48 745.54 433.59 751.01 433.87 C 751.13 429.48 751.08 425.08 750.84 420.70 C 754.10 420.77 757.38 420.77 760.65 420.74 C 760.78 416.08 760.73 411.42 760.27 406.78 L 760.82 406.78 C 764.21 406.80 767.61 406.76 771.02 406.70 C 771.23 402.82 771.31 398.94 771.27 395.06 C 774.47 394.92 777.68 394.89 780.89 394.99 C 783.56 395.07 786.25 395.07 788.94 395.04 C 789.41 391.87 788.24 388.00 790.23 385.31 C 794.06 384.71 797.95 384.97 801.82 384.87 C 801.95 381.10 802.71 376.96 800.31 373.70 L 801.00 373.71 C 804.57 373.77 808.14 373.73 811.72 373.64 C 811.82 370.05 811.90 366.46 811.99 362.87 C 815.50 362.90 819.01 362.81 822.51 362.60 C 822.61 359.30 822.67 355.99 822.72 352.68 Z" opacity="1.00" fill="#fedf32"/>
</g>
<g id="#d63e10ff">
<path d="M 897.31 352.40 C 897.75 352.41 898.61 352.43 899.04 352.43 C 899.06 355.89 899.09 359.35 899.14 362.81 C 902.86 362.79 906.58 362.80 910.32 362.83 C 910.32 366.29 910.26 369.76 910.28 373.23 C 909.68 372.77 909.10 372.32 908.53 371.87 C 905.38 372.91 902.10 373.49 898.81 373.79 C 898.53 370.41 899.87 366.22 897.67 363.38 C 894.43 362.92 891.15 362.83 887.92 362.36 C 887.95 359.30 887.99 356.25 888.04 353.20 C 891.13 352.96 894.21 352.62 897.31 352.40 Z" opacity="1.00" fill="#d63e10"/>
</g>
<g id="#912414ff">
<path d="M 899.04 352.43 C 902.79 352.45 906.53 352.47 910.29 352.50 C 910.22 355.94 910.21 359.39 910.32 362.83 C 906.58 362.80 902.86 362.79 899.14 362.81 C 899.09 359.35 899.06 355.89 899.04 352.43 Z" opacity="1.00" fill="#912414"/>
</g>
<g id="#7c2414ff">
<path d="M 626.40 352.74 C 632.68 352.69 638.97 352.82 645.26 352.66 C 642.30 355.29 640.65 358.97 640.41 362.89 C 636.49 362.97 632.57 362.87 628.66 362.64 C 628.04 360.22 627.33 357.83 626.66 355.43 C 626.59 354.75 626.47 353.41 626.40 352.74 Z" opacity="1.00" fill="#7c2414"/>
</g>
<g id="#351118ff">
<path d="M 645.26 352.66 C 648.76 352.67 652.28 352.76 655.79 352.96 C 655.88 356.06 656.07 359.17 656.24 362.28 L 656.23 362.80 C 650.95 362.79 645.68 362.84 640.41 362.89 C 640.65 358.97 642.30 355.29 645.26 352.66 Z" opacity="1.00" fill="#351118"/>
</g>
<g id="#b12a0eff">
<path d="M 770.95 352.93 C 773.88 352.80 776.82 352.70 779.77 352.61 C 780.06 355.81 780.37 359.01 780.67 362.22 C 777.72 362.20 774.77 362.30 771.83 362.52 C 770.74 359.43 770.59 356.15 770.95 352.93 Z" opacity="1.00" fill="#b12a0e"/>
</g>
<g id="#03081dff">
<path d="M 789.62 352.42 C 793.36 352.61 797.11 352.79 800.86 352.62 C 800.87 355.98 800.84 359.35 800.76 362.72 C 797.01 362.49 793.26 362.57 789.52 362.79 C 789.51 366.43 789.55 370.07 789.70 373.71 L 789.11 373.72 C 786.34 373.73 783.56 373.77 780.80 373.80 C 777.68 373.83 774.57 373.81 771.46 373.80 C 771.36 377.42 771.30 381.03 771.37 384.65 C 768.04 384.89 764.35 383.67 761.29 385.26 C 760.10 388.41 760.92 391.92 760.71 395.22 C 757.87 395.25 755.02 395.10 752.23 394.64 C 751.61 395.15 751.00 395.67 750.42 396.21 C 750.59 399.63 750.73 403.06 750.91 406.49 C 747.61 406.63 744.32 406.62 741.05 406.26 C 741.13 402.59 741.19 398.92 741.08 395.26 C 743.95 395.36 746.81 395.47 749.68 395.63 C 751.48 392.31 751.31 388.51 751.25 384.86 C 754.29 384.73 757.46 385.32 760.42 384.37 C 761.99 381.13 760.98 377.27 761.12 373.78 C 764.49 373.77 767.87 373.78 771.25 373.86 C 771.22 370.09 771.08 366.33 770.81 362.57 C 777.04 363.48 783.36 363.06 789.62 362.76 C 789.62 359.31 789.64 355.86 789.62 352.42 Z" opacity="1.00" fill="#03081d"/>
</g>
<g id="#ab830eff">
<path d="M 845.21 352.49 C 848.63 352.39 852.05 352.36 855.49 352.33 C 855.47 355.80 855.46 359.28 855.43 362.76 C 851.97 362.79 848.52 362.80 845.07 362.77 C 845.10 359.34 845.15 355.92 845.21 352.49 Z" opacity="1.00" fill="#ab830e"/>
</g>
<g id="#b22f0fff">
<path d="M 626.66 355.43 C 627.33 357.83 628.04 360.22 628.66 362.64 C 632.57 362.87 636.49 362.97 640.41 362.89 C 645.68 362.84 650.95 362.79 656.23 362.80 C 658.53 362.83 660.83 362.91 663.14 363.00 C 663.30 366.58 663.45 370.17 663.61 373.76 C 648.77 373.46 633.92 373.82 619.07 373.81 L 619.04 373.31 C 621.45 373.36 623.86 373.40 626.27 373.43 C 626.37 370.80 626.48 368.17 626.51 365.54 C 626.52 364.84 626.52 363.44 626.52 362.75 C 626.53 360.30 626.62 357.86 626.66 355.43 Z" opacity="1.00" fill="#b22f0f"/>
</g>
<g id="#7a3a2fff">
<path d="M 619.00 362.57 C 621.51 362.62 624.01 362.67 626.52 362.75 C 626.52 363.44 626.52 364.84 626.51 365.54 C 625.87 365.88 624.59 366.58 623.95 366.93 C 622.19 366.85 620.45 367.12 618.82 367.77 C 618.84 366.03 618.92 364.30 619.00 362.57 Z" opacity="1.00" fill="#7a3a2f"/>
</g>
<g id="#a22b10ff">
<path d="M 760.77 362.86 C 764.11 362.79 767.46 362.70 770.81 362.57 C 771.08 366.33 771.22 370.09 771.25 373.86 C 767.87 373.78 764.49 373.77 761.12 373.78 C 760.76 370.15 760.68 366.50 760.77 362.86 Z" opacity="1.00" fill="#a22b10"/>
</g>
<g id="#9e7d12ff">
<path d="M 789.52 362.79 C 793.26 362.57 797.01 362.49 800.76 362.72 C 800.76 366.38 800.85 370.04 801.00 373.71 L 800.31 373.70 C 796.77 373.68 793.23 373.69 789.70 373.71 C 789.55 370.07 789.51 366.43 789.52 362.79 Z" opacity="1.00" fill="#9e7d12"/>
</g>
<g id="#e9c01cff">
<path d="M 800.76 362.72 C 804.50 362.89 808.25 362.88 811.99 362.87 C 811.90 366.46 811.82 370.05 811.72 373.64 C 808.14 373.73 804.57 373.77 801.00 373.71 C 800.85 370.04 800.76 366.38 800.76 362.72 Z" opacity="1.00" fill="#e9c01c"/>
</g>
<g id="#f2cc22ff">
<path d="M 845.07 362.77 C 848.52 362.80 851.97 362.79 855.43 362.76 C 855.47 366.40 855.47 370.05 855.39 373.70 C 851.91 373.82 848.44 373.87 844.98 373.86 C 844.86 370.16 844.89 366.46 845.07 362.77 Z" opacity="1.00" fill="#f2cc22"/>
</g>
<g id="#a47e15ff">
<path d="M 855.43 362.76 C 859.22 362.76 863.01 362.78 866.81 362.76 C 866.56 366.45 866.53 370.15 866.69 373.85 C 870.29 373.75 873.89 373.69 877.49 373.59 C 877.56 377.25 877.63 380.92 877.67 384.58 C 874.01 384.54 870.36 384.53 866.71 384.69 L 866.45 384.70 C 866.63 381.00 866.65 377.29 866.56 373.59 C 862.96 373.58 859.37 373.60 855.78 373.69 L 855.39 373.70 C 855.47 370.05 855.47 366.40 855.43 362.76 Z" opacity="1.00" fill="#a47e15"/>
</g>
<g id="#531115ff">
<path d="M 910.32 362.83 C 914.00 362.76 917.69 362.75 921.39 362.80 C 921.35 365.99 921.41 369.18 921.44 372.37 C 921.39 372.72 921.28 373.42 921.23 373.77 C 917.57 373.71 913.89 373.85 910.28 373.23 C 910.26 369.76 910.32 366.29 910.32 362.83 Z" opacity="1.00" fill="#531115"/>
</g>
<g id="#838282ff">
</g>
<g id="#3a2225ff">
<path d="M 618.82 367.77 C 620.45 367.12 622.19 366.85 623.95 366.93 C 624.59 366.58 625.87 365.88 626.51 365.54 C 626.48 368.17 626.37 370.80 626.27 373.43 C 623.86 373.40 621.45 373.36 619.04 373.31 C 618.94 371.46 618.84 369.61 618.82 367.77 Z" opacity="1.00" fill="#3a2225"/>
</g>
<g id="#ce360eff">
<path d="M 908.53 371.87 C 909.10 372.32 909.68 372.77 910.28 373.23 C 913.89 373.85 917.57 373.71 921.23 373.77 C 921.21 377.45 921.22 381.13 921.18 384.81 C 923.57 384.75 925.97 384.68 928.38 384.66 C 928.20 387.98 928.08 391.30 927.99 394.62 C 930.85 394.87 933.73 395.13 936.62 395.17 C 938.13 395.17 939.66 395.16 941.20 395.15 C 940.93 398.74 940.72 402.34 940.59 405.94 C 933.79 406.24 926.99 405.97 920.19 406.07 C 920.19 402.48 920.13 398.90 920.03 395.32 C 916.41 395.38 912.80 395.37 909.18 395.37 C 909.19 391.84 909.19 388.32 909.17 384.80 C 905.70 384.73 902.24 384.75 898.78 384.87 C 898.75 381.17 898.73 377.48 898.81 373.79 C 902.10 373.49 905.38 372.91 908.53 371.87 Z" opacity="1.00" fill="#ce360e"/>
</g>
<g id="#b3260fff">
<path d="M 608.37 373.67 C 611.62 373.74 614.88 373.81 618.14 373.82 C 618.17 377.40 618.08 381.00 617.86 384.58 C 614.54 384.65 611.22 384.72 607.91 384.81 C 607.80 381.09 608.07 377.37 608.37 373.67 Z" opacity="1.00" fill="#b3260f"/>
</g>
<g id="#96240fff">
<path d="M 750.91 373.86 C 754.31 373.74 757.71 373.70 761.12 373.78 C 760.98 377.27 761.99 381.13 760.42 384.37 C 757.46 385.32 754.29 384.73 751.25 384.86 C 751.31 388.51 751.48 392.31 749.68 395.63 C 746.81 395.47 743.95 395.36 741.08 395.26 C 740.95 391.73 740.83 388.21 740.78 384.68 C 744.10 384.64 747.44 384.62 750.77 384.60 C 750.82 381.02 750.86 377.44 750.91 373.86 Z" opacity="1.00" fill="#96240f"/>
</g>
<g id="#856719ff">
<path d="M 771.46 373.80 C 774.57 373.81 777.68 373.83 780.80 373.80 C 780.79 377.46 780.82 381.12 780.90 384.78 C 777.72 384.73 774.54 384.69 771.37 384.65 C 771.30 381.03 771.36 377.42 771.46 373.80 Z" opacity="1.00" fill="#856719"/>
</g>
<g id="#b7901aff">
<path d="M 780.80 373.80 C 783.56 373.77 786.34 373.73 789.11 373.72 C 789.46 377.44 789.50 381.19 789.25 384.92 C 786.46 384.87 783.68 384.82 780.90 384.78 C 780.82 381.12 780.79 377.46 780.80 373.80 Z" opacity="1.00" fill="#b7901a"/>
</g>
<g id="#f9d123ff">
<path d="M 789.11 373.72 L 789.70 373.71 C 793.23 373.69 796.77 373.68 800.31 373.70 C 802.71 376.96 801.95 381.10 801.82 384.87 C 797.95 384.97 794.06 384.71 790.23 385.31 C 788.24 388.00 789.41 391.87 788.94 395.04 C 786.25 395.07 783.56 395.07 780.89 394.99 C 780.88 391.59 780.89 388.18 780.90 384.78 C 783.68 384.82 786.46 384.87 789.25 384.92 C 789.50 381.19 789.46 377.44 789.11 373.72 Z" opacity="1.00" fill="#f9d123"/>
</g>
<g id="#f0c622ff">
<path d="M 855.78 373.69 C 859.37 373.60 862.96 373.58 866.56 373.59 C 866.65 377.29 866.63 381.00 866.45 384.70 C 862.72 384.93 858.98 384.98 855.25 384.86 C 855.13 381.13 855.27 377.39 855.78 373.69 Z" opacity="1.00" fill="#f0c622"/>
</g>
<g id="#3d0c14ff">
<path d="M 921.23 373.77 C 924.22 373.88 927.21 373.98 930.21 374.06 C 930.27 377.34 930.31 380.62 930.30 383.90 C 931.23 384.18 932.18 384.44 933.14 384.70 C 931.53 384.65 929.95 384.65 928.38 384.66 C 925.97 384.68 923.57 384.75 921.18 384.81 C 921.22 381.13 921.21 377.45 921.23 373.77 Z" opacity="1.00" fill="#3d0c14"/>
</g>
<g id="#b43010ff">
<path d="M 720.35 385.22 C 727.15 384.98 733.96 384.77 740.78 384.68 C 740.83 388.21 740.95 391.73 741.08 395.26 C 741.19 398.92 741.13 402.59 741.05 406.26 L 740.60 406.23 C 733.78 405.67 726.94 406.22 720.12 406.05 C 720.05 402.38 720.00 398.72 720.11 395.06 C 720.20 391.78 720.29 388.50 720.35 385.22 Z" opacity="1.00" fill="#b43010"/>
</g>
<g id="#896c0fff">
<path d="M 761.29 385.26 C 764.35 383.67 768.04 384.89 771.37 384.65 C 771.45 388.12 771.39 391.59 771.27 395.06 C 767.75 395.13 764.23 395.12 760.71 395.22 C 760.92 391.92 760.10 388.41 761.29 385.26 Z" opacity="1.00" fill="#896c0f"/>
</g>
<g id="#d7ac16ff">
<path d="M 771.37 384.65 C 774.54 384.69 777.72 384.73 780.90 384.78 C 780.89 388.18 780.88 391.59 780.89 394.99 C 777.68 394.89 774.47 394.92 771.27 395.06 C 771.39 391.59 771.45 388.12 771.37 384.65 Z" opacity="1.00" fill="#d7ac16"/>
</g>
<g id="#f3ce22ff">
<path d="M 866.71 384.69 C 870.36 384.53 874.01 384.54 877.67 384.58 C 877.57 388.08 877.56 391.58 877.63 395.08 L 876.86 395.08 C 873.31 395.08 869.76 395.01 866.22 394.86 C 866.09 391.46 866.22 388.05 866.71 384.69 Z" opacity="1.00" fill="#f3ce22"/>
</g>
<g id="#ae870eff">
<path d="M 877.67 384.58 C 881.21 384.54 884.76 384.48 888.31 384.39 C 888.26 387.89 888.26 391.39 888.23 394.90 C 884.69 395.09 881.16 395.12 877.63 395.08 C 877.56 391.58 877.57 388.08 877.67 384.58 Z" opacity="1.00" fill="#ae870e"/>
</g>
<g id="#63110dff">
<path d="M 928.38 384.66 C 929.95 384.65 931.53 384.65 933.14 384.70 C 934.28 384.92 935.44 385.15 936.61 385.37 C 936.56 388.64 936.56 391.90 936.62 395.17 C 933.73 395.13 930.85 394.87 927.99 394.62 C 928.08 391.30 928.20 387.98 928.38 384.66 Z" opacity="1.00" fill="#63110d"/>
</g>
<g id="#959390ff">
<path d="M 952.54 385.19 L 953.66 385.29 C 953.92 391.74 953.68 398.20 954.18 404.65 C 957.13 404.90 960.55 404.05 963.11 405.96 C 959.58 406.17 956.05 406.13 952.53 406.13 C 952.51 399.15 952.46 392.17 952.54 385.19 Z" opacity="1.00" fill="#959390"/>
</g>
<g id="#c33810ff">
<path d="M 597.81 395.12 C 604.42 395.14 611.04 395.12 617.66 395.24 C 651.80 394.71 685.96 395.32 720.11 395.06 C 720.00 398.72 720.05 402.38 720.12 406.05 C 679.37 406.00 638.61 405.92 597.87 406.04 C 597.84 402.40 597.81 398.76 597.81 395.12 Z" opacity="1.00" fill="#c33810"/>
</g>
<g id="#816415ff">
<path d="M 750.42 396.21 C 751.00 395.67 751.61 395.15 752.23 394.64 C 755.02 395.10 757.87 395.25 760.71 395.22 C 760.72 399.07 760.76 402.93 760.82 406.78 L 760.27 406.78 C 757.06 406.76 753.86 406.73 750.66 406.71 C 750.78 411.37 750.80 416.03 750.84 420.70 C 747.30 420.58 743.77 420.60 740.24 420.73 L 740.24 420.42 C 740.31 415.69 740.49 410.96 740.60 406.23 L 741.05 406.26 C 744.32 406.62 747.61 406.63 750.91 406.49 C 750.73 403.06 750.59 399.63 750.42 396.21 Z" opacity="1.00" fill="#816415"/>
</g>
<g id="#e2bb1dff">
<path d="M 760.71 395.22 C 764.23 395.12 767.75 395.13 771.27 395.06 C 771.31 398.94 771.23 402.82 771.02 406.70 C 767.61 406.76 764.21 406.80 760.82 406.78 C 760.76 402.93 760.72 399.07 760.71 395.22 Z" opacity="1.00" fill="#e2bb1d"/>
</g>
<g id="#f8d32aff">
<path d="M 876.86 395.08 L 877.63 395.08 C 881.16 395.12 884.69 395.09 888.23 394.90 C 888.10 398.87 888.07 402.84 888.06 406.82 C 884.41 407.10 880.75 407.07 877.10 406.84 C 876.83 403.24 876.94 399.56 878.42 396.21 C 878.03 395.93 877.25 395.36 876.86 395.08 Z" opacity="1.00" fill="#f8d32a"/>
</g>
<g id="#ab8419ff">
<path d="M 888.23 394.90 C 891.88 394.80 895.53 394.82 899.19 394.85 C 899.00 398.84 898.88 402.84 898.98 406.85 C 895.91 406.77 892.84 406.67 889.77 406.73 C 889.35 406.75 888.49 406.79 888.06 406.82 C 888.07 402.84 888.10 398.87 888.23 394.90 Z" opacity="1.00" fill="#ab8419"/>
</g>
<g id="#e3b817ff">
<path d="M 750.66 406.71 C 753.86 406.73 757.06 406.76 760.27 406.78 C 760.73 411.42 760.78 416.08 760.65 420.74 C 757.38 420.77 754.10 420.77 750.84 420.70 C 750.80 416.03 750.78 411.37 750.66 406.71 Z" opacity="1.00" fill="#e3b817"/>
</g>
<g id="#fad32bff">
<path d="M 889.77 406.73 C 892.84 406.67 895.91 406.77 898.98 406.85 C 899.20 411.37 899.17 415.90 899.03 420.43 L 899.02 420.66 C 895.57 420.10 892.07 420.03 888.64 419.44 C 887.55 415.33 886.95 410.29 889.77 406.73 Z" opacity="1.00" fill="#fad32b"/>
</g>
<g id="#a9830fff">
<path d="M 898.98 406.85 C 902.74 406.78 906.51 406.65 910.28 406.57 C 910.23 411.15 910.23 415.72 910.16 420.30 C 913.99 420.45 917.83 420.46 921.67 420.35 C 921.64 424.79 921.65 429.24 921.62 433.69 C 917.82 433.05 913.97 433.70 910.17 433.86 C 910.23 429.40 910.20 424.95 910.21 420.51 C 906.48 420.43 902.75 420.40 899.03 420.43 C 899.17 415.90 899.20 411.37 898.98 406.85 Z" opacity="1.00" fill="#a9830f"/>
</g>
<g id="#e8c021ff">
<path d="M 778.15 420.08 C 781.11 418.76 784.41 419.21 787.55 419.39 C 787.73 422.52 787.83 425.66 787.81 428.80 C 788.09 429.10 788.66 429.70 788.94 429.99 C 788.29 461.97 788.69 493.97 788.68 525.96 L 787.63 525.94 C 786.49 518.67 787.50 511.32 787.13 504.01 C 787.29 479.16 787.24 454.29 786.63 429.44 C 783.66 429.86 780.67 430.11 777.68 430.22 C 777.75 426.85 777.07 423.34 778.15 420.08 Z" opacity="1.00" fill="#e8c021"/>
</g>
<g id="#947419ff">
<path d="M 788.65 418.99 C 814.41 418.74 840.17 418.92 865.94 419.01 C 865.84 428.99 865.90 438.97 865.78 448.96 C 862.32 449.08 858.86 449.12 855.41 449.23 C 855.25 445.74 855.24 442.26 855.29 438.78 C 855.31 435.87 855.27 432.96 855.22 430.06 C 833.13 430.21 811.03 429.60 788.94 429.99 C 788.37 426.35 788.42 422.66 788.65 418.99 Z" opacity="1.00" fill="#947419"/>
</g>
<g id="#fbd62cff">
<path d="M 865.94 419.01 C 869.57 418.96 873.22 419.00 876.87 419.15 C 877.08 454.39 876.99 489.64 876.96 524.89 C 873.45 524.87 869.94 525.12 866.53 526.00 L 865.82 526.12 C 865.81 500.40 865.99 474.67 865.78 448.96 C 865.90 438.97 865.84 428.99 865.94 419.01 Z" opacity="1.00" fill="#fbd62c"/>
</g>
<g id="#be9613ff">
<path d="M 729.03 420.45 C 732.76 420.44 736.50 420.44 740.24 420.42 L 740.24 420.73 C 740.27 424.90 740.28 429.08 740.12 433.25 C 736.57 433.35 733.02 433.37 729.48 433.34 C 729.97 429.04 729.95 424.69 729.03 420.45 Z" opacity="1.00" fill="#be9613"/>
</g>
<g id="#f3cd22ff">
<path d="M 899.03 420.43 C 902.75 420.40 906.48 420.43 910.21 420.51 C 910.20 424.95 910.23 429.40 910.17 433.86 C 906.47 433.88 902.77 433.85 899.08 433.75 C 898.89 429.39 898.86 425.02 899.02 420.66 L 899.03 420.43 Z" opacity="1.00" fill="#f3cd22"/>
</g>
<g id="#a38014ff">
<path d="M 626.48 420.54 C 660.66 420.27 694.84 420.68 729.03 420.45 C 729.95 424.69 729.97 429.04 729.48 433.34 C 729.11 431.21 728.73 429.10 728.36 426.99 C 728.18 428.48 728.01 429.98 727.84 431.48 C 723.56 431.08 719.27 430.91 714.98 430.99 C 686.05 431.03 657.11 431.08 628.18 431.15 C 628.15 434.75 628.14 438.35 628.11 441.95 L 626.39 442.02 C 626.31 434.85 626.65 427.69 626.48 420.54 Z" opacity="1.00" fill="#a38014"/>
</g>
<g id="#efc722ff">
<path d="M 740.24 420.73 C 743.77 420.60 747.30 420.58 750.84 420.70 C 751.08 425.08 751.13 429.48 751.01 433.87 C 745.54 433.59 740.05 433.48 734.64 434.46 C 732.94 434.30 731.24 434.12 729.57 433.90 L 729.48 433.34 C 733.02 433.37 736.57 433.35 740.12 433.25 C 740.28 429.08 740.27 424.90 740.24 420.73 Z" opacity="1.00" fill="#efc722"/>
</g>
<g id="#967616ff">
<path d="M 728.36 426.99 C 728.73 429.10 729.11 431.21 729.48 433.34 L 729.57 433.90 C 729.69 435.08 729.81 436.26 729.94 437.45 C 729.38 443.92 729.77 450.41 729.63 456.89 L 728.87 457.05 C 729.05 451.94 729.24 446.83 729.22 441.73 C 695.52 441.67 661.81 441.67 628.11 441.95 C 628.14 438.35 628.15 434.75 628.18 431.15 C 657.11 431.08 686.05 431.03 714.98 430.99 C 719.27 430.91 723.56 431.08 727.84 431.48 C 728.01 429.98 728.18 428.48 728.36 426.99 Z" opacity="1.00" fill="#967616"/>
</g>
<g id="#d9b01dff">
<path d="M 777.68 430.22 C 780.67 430.11 783.66 429.86 786.63 429.44 C 787.24 454.29 787.29 479.16 787.13 504.01 C 787.50 511.32 786.49 518.67 787.63 525.94 C 784.31 525.99 780.99 526.08 777.67 525.97 C 777.54 494.06 777.61 462.14 777.68 430.22 Z" opacity="1.00" fill="#d9b01d"/>
</g>
<g id="#020921ff">
<path d="M 788.94 429.99 C 811.03 429.60 833.13 430.21 855.22 430.06 C 855.27 432.96 855.31 435.87 855.29 438.78 C 840.63 438.25 825.96 438.54 811.30 438.50 C 807.51 438.50 803.71 438.57 799.93 438.71 C 799.87 442.12 799.86 445.53 799.88 448.95 C 799.86 456.65 799.85 464.35 799.85 472.05 C 799.82 476.48 799.81 480.91 799.67 485.34 C 799.28 483.53 798.78 481.76 798.29 480.00 C 797.48 497.00 798.76 514.09 797.54 531.07 C 795.05 529.83 792.66 528.33 790.81 526.23 C 790.09 526.84 789.39 527.47 788.70 528.10 C 788.70 527.56 788.69 526.49 788.68 525.96 C 788.69 493.97 788.29 461.97 788.94 429.99 Z" opacity="1.00" fill="#020921"/>
</g>
<g id="#d6aa18ff">
<path d="M 910.17 433.86 C 913.97 433.70 917.82 433.05 921.62 433.69 C 921.61 464.42 921.47 495.15 921.63 525.88 C 917.79 525.84 913.96 525.88 910.14 526.05 C 909.84 495.33 909.93 464.59 910.17 433.86 Z" opacity="1.00" fill="#d6aa18"/>
<path d="M 626.46 449.03 L 627.70 449.17 C 627.65 459.63 627.35 470.11 628.03 480.56 C 628.04 491.16 627.43 501.78 628.02 512.38 C 627.93 516.97 627.88 521.56 628.01 526.16 C 627.59 526.15 626.74 526.14 626.31 526.13 C 626.56 500.43 626.68 474.73 626.46 449.03 Z" opacity="1.00" fill="#d6aa18"/>
</g>
<g id="#f8d127ff">
<path d="M 729.57 433.90 C 731.24 434.12 732.94 434.30 734.64 434.46 C 736.44 434.72 738.23 435.05 740.04 435.38 C 740.32 442.20 740.39 449.03 739.90 455.85 C 736.99 456.51 734.04 456.89 731.07 457.09 C 730.33 450.55 731.72 443.86 729.94 437.45 C 729.81 436.26 729.69 435.08 729.57 433.90 Z" opacity="1.00" fill="#f8d127"/>
</g>
<g id="#012d5eff">
<path d="M 799.93 438.71 C 803.71 438.57 807.51 438.50 811.30 438.50 C 811.74 442.07 811.98 445.66 812.01 449.27 C 807.96 449.31 803.92 449.11 799.88 448.95 C 799.86 445.53 799.87 442.12 799.93 438.71 Z" opacity="1.00" fill="#012d5e"/>
</g>
<g id="#003569ff">
<path d="M 811.30 438.50 C 825.96 438.54 840.63 438.25 855.29 438.78 C 855.24 442.26 855.25 445.74 855.41 449.23 C 851.96 449.79 848.47 450.09 844.99 449.84 C 834.02 449.13 822.99 449.04 812.01 449.27 C 811.98 445.66 811.74 442.07 811.30 438.50 Z" opacity="1.00" fill="#003569"/>
</g>
<g id="#7c6115ff">
<path d="M 626.39 442.02 L 628.11 441.95 C 661.81 441.67 695.52 441.67 729.22 441.73 C 729.24 446.83 729.05 451.94 728.87 457.05 C 728.50 457.10 727.76 457.22 727.39 457.28 C 721.95 456.57 716.47 456.71 711.01 456.97 C 710.71 457.85 710.43 458.74 710.17 459.65 C 710.11 458.89 709.98 457.37 709.92 456.62 C 709.74 456.37 709.38 455.88 709.21 455.64 C 690.77 455.26 672.31 455.74 653.87 455.30 C 653.75 453.33 653.64 451.37 653.53 449.42 C 644.92 449.31 636.30 449.59 627.70 449.17 L 626.46 449.03 C 626.40 446.69 626.39 444.35 626.39 442.02 Z" opacity="1.00" fill="#7c6115"/>
</g>
<g id="#ad8714ff">
<path d="M 627.70 449.17 C 636.30 449.59 644.92 449.31 653.53 449.42 C 653.64 451.37 653.75 453.33 653.87 455.30 C 672.31 455.74 690.77 455.26 709.21 455.64 C 709.38 455.88 709.74 456.37 709.92 456.62 C 696.46 456.55 683.00 456.55 669.55 456.70 C 664.22 456.65 658.88 456.64 653.57 456.21 C 650.63 459.12 652.39 464.04 651.83 467.80 C 651.48 467.43 650.78 466.69 650.43 466.33 C 649.86 467.39 649.31 468.46 648.76 469.53 C 648.19 469.16 647.63 468.79 647.08 468.43 C 642.54 470.96 637.13 470.02 632.95 467.26 C 632.06 467.71 631.19 468.17 630.32 468.63 C 630.01 467.41 629.70 466.20 629.40 465.00 C 628.84 470.18 629.72 475.53 628.03 480.56 C 627.35 470.11 627.65 459.63 627.70 449.17 Z" opacity="1.00" fill="#ad8714"/>
</g>
<g id="#013c73ff">
<path d="M 799.88 448.95 C 803.92 449.11 807.96 449.31 812.01 449.27 C 811.67 456.88 811.87 464.51 812.00 472.12 L 811.29 472.11 C 807.47 472.04 803.66 472.06 799.85 472.05 C 799.85 464.35 799.86 456.65 799.88 448.95 Z" opacity="1.00" fill="#013c73"/>
</g>
<g id="#014b88ff">
<path d="M 812.01 449.27 C 822.99 449.04 834.02 449.13 844.99 449.84 C 844.91 457.24 844.95 464.63 844.95 472.03 C 833.97 472.22 822.98 472.47 812.00 472.12 C 811.87 464.51 811.67 456.88 812.01 449.27 Z" opacity="1.00" fill="#014b88"/>
</g>
<g id="#00437eff">
<path d="M 844.99 449.84 C 848.47 450.09 851.96 449.79 855.41 449.23 C 855.56 456.85 855.55 464.47 855.55 472.10 C 852.01 472.07 848.48 472.01 844.95 472.03 C 844.95 464.63 844.91 457.24 844.99 449.84 Z" opacity="1.00" fill="#00437e"/>
</g>
<g id="#b48f15ff">
<path d="M 651.83 467.80 C 652.39 464.04 650.63 459.12 653.57 456.21 C 654.06 469.51 653.45 482.83 653.86 496.14 C 657.22 496.07 660.59 496.03 663.95 496.12 L 664.61 496.14 C 670.36 497.42 676.26 496.86 682.10 497.12 C 682.49 501.01 685.03 504.06 687.27 507.07 C 672.84 507.32 658.41 507.01 643.98 507.11 C 639.26 507.24 634.43 506.54 629.79 507.56 C 628.93 509.05 628.50 510.74 628.02 512.38 C 627.43 501.78 628.04 491.16 628.03 480.56 C 629.72 475.53 628.84 470.18 629.40 465.00 C 629.70 466.20 630.01 467.41 630.32 468.63 C 631.19 468.17 632.06 467.71 632.95 467.26 C 637.13 470.02 642.54 470.96 647.08 468.43 C 647.63 468.79 648.19 469.16 648.76 469.53 C 649.31 468.46 649.86 467.39 650.43 466.33 C 650.78 466.69 651.48 467.43 651.83 467.80 Z" opacity="1.00" fill="#b48f15"/>
</g>
<g id="#01071fff">
<path d="M 653.57 456.21 C 658.88 456.64 664.22 456.65 669.55 456.70 C 667.73 457.28 665.94 457.94 664.15 458.60 C 664.00 461.02 663.86 463.45 663.83 465.88 C 663.74 475.28 663.92 484.68 663.96 494.07 C 663.96 494.59 663.96 495.61 663.95 496.12 C 660.59 496.03 657.22 496.07 653.86 496.14 C 653.45 482.83 654.06 469.51 653.57 456.21 Z" opacity="1.00" fill="#01071f"/>
</g>
<g id="#011232ff">
<path d="M 669.55 456.70 C 683.00 456.55 696.46 456.55 709.92 456.62 C 709.98 457.37 710.11 458.89 710.17 459.65 C 709.61 461.70 709.07 463.76 708.60 465.85 C 701.41 466.69 694.18 465.88 686.98 465.94 C 679.26 465.82 671.54 466.23 663.83 465.88 C 663.86 463.45 664.00 461.02 664.15 458.60 C 665.94 457.94 667.73 457.28 669.55 456.70 Z" opacity="1.00" fill="#011232"/>
</g>
<g id="#9e7c12ff">
<path d="M 711.01 456.97 C 716.47 456.71 721.95 456.57 727.39 457.28 C 724.97 457.67 722.56 458.05 720.15 458.41 C 719.85 470.60 720.35 482.81 719.79 495.00 C 717.28 495.07 714.77 494.81 712.41 493.92 C 712.11 492.29 711.81 490.68 711.52 489.06 C 711.31 491.30 711.13 493.55 710.84 495.79 L 710.18 496.01 C 710.35 486.15 710.43 476.29 710.18 466.44 C 710.25 464.17 710.18 461.91 710.17 459.65 C 710.43 458.74 710.71 457.85 711.01 456.97 Z" opacity="1.00" fill="#9e7c12"/>
</g>
<g id="#a88515ff">
<path d="M 727.39 457.28 C 727.76 457.22 728.50 457.10 728.87 457.05 L 729.63 456.89 C 729.43 476.12 729.64 495.36 729.82 514.59 C 729.57 518.45 729.66 522.33 729.77 526.20 C 726.56 526.21 723.36 526.20 720.16 526.18 C 719.98 519.84 720.21 513.50 719.88 507.17 C 709.01 507.01 698.14 507.41 687.27 507.07 C 685.03 504.06 682.49 501.01 682.10 497.12 C 676.26 496.86 670.36 497.42 664.61 496.14 C 679.79 495.75 694.99 496.19 710.18 496.01 L 710.84 495.79 C 711.13 493.55 711.31 491.30 711.52 489.06 C 711.81 490.68 712.11 492.29 712.41 493.92 C 714.77 494.81 717.28 495.07 719.79 495.00 C 720.35 482.81 719.85 470.60 720.15 458.41 C 722.56 458.05 724.97 457.67 727.39 457.28 Z" opacity="1.00" fill="#a88515"/>
</g>
<g id="#012852ff">
<path d="M 708.60 465.85 C 709.07 463.76 709.61 461.70 710.17 459.65 C 710.18 461.91 710.25 464.17 710.18 466.44 C 707.53 475.28 709.88 484.66 708.51 493.67 C 707.04 496.18 703.47 494.58 701.10 494.83 C 700.78 488.29 701.04 481.75 700.79 475.21 C 692.02 473.50 683.05 474.18 674.18 474.18 C 673.80 477.65 673.37 481.13 672.86 484.59 C 670.25 485.09 667.66 485.63 665.07 486.18 C 665.05 487.97 665.04 489.77 665.04 491.57 C 667.87 491.86 670.77 492.26 673.27 493.74 C 670.17 494.04 667.06 494.09 663.96 494.07 C 663.92 484.68 663.74 475.28 663.83 465.88 C 671.54 466.23 679.26 465.82 686.98 465.94 C 694.18 465.88 701.41 466.69 708.60 465.85 Z" opacity="1.00" fill="#012852"/>
</g>
<g id="#003264ff">
<path d="M 708.51 493.67 C 709.88 484.66 707.53 475.28 710.18 466.44 C 710.43 476.29 710.35 486.15 710.18 496.01 C 694.99 496.19 679.79 495.75 664.61 496.14 L 663.95 496.12 C 663.96 495.61 663.96 494.59 663.96 494.07 C 667.06 494.09 670.17 494.04 673.27 493.74 C 670.77 492.26 667.87 491.86 665.04 491.57 C 665.04 489.77 665.05 487.97 665.07 486.18 C 667.66 485.63 670.25 485.09 672.86 484.59 C 673.37 481.13 673.80 477.65 674.18 474.18 C 683.05 474.18 692.02 473.50 700.79 475.21 C 701.04 481.75 700.78 488.29 701.10 494.83 C 703.47 494.58 707.04 496.18 708.51 493.67 Z" opacity="1.00" fill="#003264"/>
</g>
<g id="#002c5eff">
<path d="M 799.85 472.05 C 803.66 472.06 807.47 472.04 811.29 472.11 C 811.95 476.43 812.06 480.81 812.00 485.18 C 807.89 485.34 803.78 485.42 799.67 485.34 C 799.81 480.91 799.82 476.48 799.85 472.05 Z" opacity="1.00" fill="#002c5e"/>
</g>
<g id="#00376cff">
<path d="M 811.29 472.11 L 812.00 472.12 C 822.98 472.47 833.97 472.22 844.95 472.03 C 848.48 472.01 852.01 472.07 855.55 472.10 C 855.56 476.53 855.49 480.96 855.43 485.39 C 840.96 485.37 826.47 485.05 812.00 485.18 C 812.06 480.81 811.95 476.43 811.29 472.11 Z" opacity="1.00" fill="#00376c"/>
</g>
<g id="#014a85ff">
<path d="M 799.67 485.34 C 803.78 485.42 807.89 485.34 812.00 485.18 C 826.47 485.05 840.96 485.37 855.43 485.39 C 855.31 494.51 855.52 503.63 855.42 512.75 C 851.91 512.64 848.41 512.60 844.92 512.64 C 829.87 512.78 814.81 512.39 799.77 512.85 C 799.86 503.68 799.74 494.50 799.67 485.34 Z" opacity="1.00" fill="#014a85"/>
</g>
<g id="#f9d527ff">
<path d="M 739.40 495.77 C 740.49 500.55 739.80 505.49 740.59 510.31 C 741.39 515.55 740.99 520.85 740.86 526.12 C 737.16 526.12 733.46 526.16 729.77 526.20 C 729.66 522.33 729.57 518.45 729.82 514.59 C 731.81 509.48 730.61 503.94 731.14 498.63 C 732.45 498.28 733.77 497.92 735.09 497.56 C 737.18 499.95 737.87 503.07 738.55 506.09 C 738.79 502.64 739.01 499.20 739.40 495.77 Z" opacity="1.00" fill="#f9d527"/>
</g>
<g id="#c09c17ff">
<path d="M 628.02 512.38 C 628.50 510.74 628.93 509.05 629.79 507.56 C 634.43 506.54 639.26 507.24 643.98 507.11 C 658.41 507.01 672.84 507.32 687.27 507.07 C 698.14 507.41 709.01 507.01 719.88 507.17 C 720.21 513.50 719.98 519.84 720.16 526.18 L 720.17 526.74 C 689.45 526.07 658.72 527.21 628.01 526.16 C 627.88 521.56 627.93 516.97 628.02 512.38 Z" opacity="1.00" fill="#c09c17"/>
</g>
<g id="#828181ff">
</g>
<g id="#013568ff">
<path d="M 799.77 512.85 C 814.81 512.39 829.87 512.78 844.92 512.64 C 844.86 516.68 844.90 520.73 845.03 524.77 C 829.91 524.50 814.79 524.73 799.67 524.74 C 799.67 520.77 799.74 516.81 799.77 512.85 Z" opacity="1.00" fill="#013568"/>
</g>
<g id="#002b5eff">
<path d="M 844.92 512.64 C 848.41 512.60 851.91 512.64 855.42 512.75 C 855.48 521.79 855.33 530.83 855.49 539.87 C 852.00 539.84 848.51 539.89 845.04 540.05 C 845.07 534.96 845.17 529.86 845.03 524.77 C 844.90 520.73 844.86 516.68 844.92 512.64 Z" opacity="1.00" fill="#002b5e"/>
</g>
<g id="#004b88ff">
<path d="M 799.67 524.74 C 814.79 524.73 829.91 524.50 845.03 524.77 C 845.17 529.86 845.07 534.96 845.04 540.05 C 829.93 539.92 814.82 539.78 799.72 540.10 C 799.78 534.98 799.68 529.86 799.67 524.74 Z" opacity="1.00" fill="#004b88"/>
</g>
<g id="#916f13ff">
<path d="M 626.31 526.13 C 626.74 526.14 627.59 526.15 628.01 526.16 C 658.72 527.21 689.45 526.07 720.17 526.74 C 720.22 531.08 720.20 535.43 720.21 539.78 C 688.90 539.95 657.59 539.94 626.28 539.90 C 626.27 535.31 626.25 530.72 626.31 526.13 Z" opacity="1.00" fill="#916f13"/>
</g>
<g id="#721810ff">
<path d="M 720.16 526.18 C 723.36 526.20 726.56 526.21 729.77 526.20 C 729.82 530.74 729.87 535.28 729.97 539.82 C 726.71 539.75 723.46 539.74 720.21 539.78 C 720.20 535.43 720.22 531.08 720.17 526.74 L 720.16 526.18 Z" opacity="1.00" fill="#721810"/>
</g>
<g id="#db3c0cff">
<path d="M 729.77 526.20 C 733.46 526.16 737.16 526.12 740.86 526.12 C 753.13 526.10 765.40 526.15 777.67 525.97 C 777.64 530.64 777.61 535.31 777.35 539.98 C 761.55 539.75 745.76 539.92 729.97 539.82 C 729.87 535.28 729.82 530.74 729.77 526.20 Z" opacity="1.00" fill="#db3c0c"/>
</g>
<g id="#9c2310ff">
<path d="M 777.67 525.97 C 780.99 526.08 784.31 525.99 787.63 525.94 L 788.68 525.96 C 788.69 526.49 788.70 527.56 788.70 528.10 C 788.72 532.01 788.74 535.93 788.71 539.84 C 785.14 539.74 781.58 539.79 778.03 539.96 L 777.35 539.98 C 777.61 535.31 777.64 530.64 777.67 525.97 Z" opacity="1.00" fill="#9c2310"/>
</g>
<g id="#d83b0dff">
<path d="M 865.82 526.12 L 866.53 526.00 C 881.06 526.26 895.60 526.00 910.14 526.05 C 910.20 530.41 910.10 534.78 909.90 539.15 C 895.25 539.48 880.60 539.35 865.96 539.25 C 865.81 534.87 865.81 530.49 865.82 526.12 Z" opacity="1.00" fill="#d83b0d"/>
</g>
<g id="#bf2d0fff">
<path d="M 910.14 526.05 C 913.96 525.88 917.79 525.84 921.63 525.88 C 921.68 530.69 921.64 535.50 921.62 540.31 C 913.44 539.40 905.22 540.37 897.03 540.09 C 886.68 540.27 876.33 539.85 865.99 540.02 L 865.96 539.25 C 880.60 539.35 895.25 539.48 909.90 539.15 C 910.10 534.78 910.20 530.41 910.14 526.05 Z" opacity="1.00" fill="#bf2d0f"/>
</g>
<g id="#541417ff">
<path d="M 729.97 539.82 C 745.76 539.92 761.55 539.75 777.35 539.98 L 778.03 539.96 C 777.51 547.12 777.03 554.32 777.81 561.48 C 761.93 561.49 746.04 561.65 730.16 561.17 C 730.49 554.05 730.20 546.93 729.97 539.82 Z" opacity="1.00" fill="#541417"/>
</g>
<g id="#3c1018ff">
<path d="M 778.03 539.96 C 781.58 539.79 785.14 539.74 788.71 539.84 C 788.58 546.93 788.69 554.02 788.75 561.11 C 785.11 561.42 781.46 561.56 777.81 561.48 C 777.03 554.32 777.51 547.12 778.03 539.96 Z" opacity="1.00" fill="#3c1018"/>
</g>
<g id="#021b3eff">
<path d="M 799.72 540.10 C 814.82 539.78 829.93 539.92 845.04 540.05 C 844.99 547.16 844.81 554.26 844.99 561.37 C 829.97 561.29 814.94 561.63 799.93 561.13 C 799.67 554.12 799.62 547.11 799.72 540.10 Z" opacity="1.00" fill="#021b3e"/>
</g>
<g id="#021330ff">
<path d="M 845.04 540.05 C 848.51 539.89 852.00 539.84 855.49 539.87 C 856.16 546.91 855.50 553.96 854.86 560.98 C 851.57 561.22 848.28 561.41 844.99 561.37 C 844.81 554.26 844.99 547.16 845.04 540.05 Z" opacity="1.00" fill="#021330"/>
</g>
<g id="#561416ff">
<path d="M 865.99 540.02 C 876.33 539.85 886.68 540.27 897.03 540.09 C 905.22 540.37 913.44 539.40 921.62 540.31 C 921.57 547.30 921.66 554.29 921.56 561.28 C 903.07 561.64 884.56 561.46 866.07 561.29 C 866.16 554.20 866.29 547.10 865.99 540.02 Z" opacity="1.00" fill="#561416"/>
</g>
<g id="#b7aea8ff">
<path d="M 1151.13 562.83 C 1151.61 562.40 1152.13 561.99 1152.68 561.61 C 1153.00 561.58 1153.64 561.51 1153.96 561.47 C 1154.33 563.18 1154.43 564.92 1154.56 566.66 C 1152.31 566.53 1150.08 566.36 1147.87 566.09 C 1148.94 565.00 1150.03 563.91 1151.13 562.83 Z" opacity="1.00" fill="#b7aea8"/>
</g>
<g id="#fefefeff">
<path d="M 402.59 579.64 C 425.79 579.71 448.99 579.80 472.20 579.66 C 472.12 597.62 472.24 615.59 472.20 633.55 C 457.08 633.85 441.95 633.66 426.83 633.63 C 426.91 642.71 426.83 651.80 426.79 660.89 C 418.71 660.86 410.63 660.82 402.55 660.98 C 402.43 633.87 402.55 606.75 402.59 579.64 M 426.82 600.71 C 426.85 604.40 426.87 608.10 426.90 611.80 C 434.15 611.96 441.40 611.71 448.66 611.87 C 448.61 608.21 448.58 604.55 448.69 600.90 C 441.40 600.72 434.11 600.95 426.82 600.71 Z" opacity="1.00" fill="#fefefe"/>
<path d="M 484.29 579.96 C 492.43 579.72 500.58 579.84 508.72 579.86 C 508.37 606.84 508.82 633.84 508.56 660.82 C 500.47 660.95 492.39 660.79 484.31 660.90 C 484.48 633.92 484.62 606.93 484.29 579.96 Z" opacity="1.00" fill="#fefefe"/>
<path d="M 520.77 579.89 C 528.58 580.03 536.40 579.60 544.22 579.87 C 545.23 586.53 544.46 593.72 544.67 600.59 C 551.62 600.58 558.57 600.42 565.53 600.43 C 565.66 593.56 565.55 586.68 565.55 579.81 C 573.53 579.69 581.52 579.96 589.51 579.73 C 589.47 590.48 589.82 601.23 589.54 611.98 C 584.61 612.22 579.68 612.24 574.76 612.09 C 574.76 616.30 574.72 620.51 575.16 624.71 C 580.02 624.48 584.89 624.49 589.75 624.09 C 589.69 636.30 589.87 648.51 589.56 660.71 C 581.50 660.84 573.45 661.01 565.40 660.82 C 565.69 653.43 565.24 646.01 565.90 638.64 C 558.71 638.65 551.52 638.93 544.34 638.84 C 544.83 646.16 544.45 653.51 544.36 660.84 C 536.53 660.86 528.70 660.92 520.88 660.87 C 520.67 648.77 520.87 636.67 520.72 624.57 C 528.16 624.87 535.62 624.49 543.07 624.71 C 543.16 620.34 543.09 615.98 543.17 611.62 C 535.71 611.50 528.25 611.91 520.79 611.80 C 520.61 601.16 520.85 590.53 520.77 579.89 M 575.47 581.22 C 577.93 583.57 576.84 587.16 576.90 590.17 C 579.87 591.03 582.89 589.95 585.91 590.01 C 586.84 590.67 587.20 591.86 587.84 592.80 C 588.21 588.89 588.33 584.95 587.97 581.04 C 583.80 580.75 579.62 580.73 575.47 581.22 Z" opacity="1.00" fill="#fefefe"/>
<path d="M 601.84 579.88 C 619.28 579.88 636.71 579.94 654.15 579.82 C 655.52 586.12 654.00 592.61 655.30 598.94 C 658.18 599.07 661.07 599.11 663.97 599.07 C 664.20 593.11 664.22 587.15 663.97 581.19 C 662.87 580.76 661.77 580.34 660.67 579.96 C 662.41 579.85 664.15 579.79 665.91 579.74 C 665.44 586.73 665.91 593.74 665.73 600.75 C 652.45 600.82 639.17 600.88 625.89 600.85 C 625.95 604.52 625.94 608.18 625.86 611.85 C 638.41 611.71 650.97 611.94 663.51 611.65 C 663.71 617.62 663.45 623.59 663.51 629.56 C 650.98 629.51 638.45 629.60 625.92 629.62 C 625.91 633.17 625.91 636.72 625.90 640.28 C 639.30 639.90 652.71 640.49 666.11 640.03 C 666.03 646.97 665.77 653.90 665.90 660.84 C 644.66 661.21 623.44 660.84 602.20 660.89 C 602.07 635.27 602.22 609.65 602.13 584.03 C 602.07 582.64 601.97 581.25 601.84 579.88 Z" opacity="1.00" fill="#fefefe"/>
<path d="M 677.35 583.98 C 677.43 582.52 677.04 580.89 678.00 579.65 C 679.28 585.02 678.52 590.61 679.42 596.04 C 679.73 594.31 680.03 592.59 680.34 590.88 C 686.90 591.08 693.48 591.33 699.97 589.91 C 700.03 587.07 700.01 584.23 699.92 581.39 C 697.46 580.97 695.03 580.48 692.60 580.01 C 695.70 579.76 698.82 579.79 701.94 579.72 C 701.57 593.81 702.50 607.90 701.97 622.00 C 701.84 628.04 701.91 634.08 701.92 640.13 C 713.01 639.99 724.10 640.24 735.19 640.04 C 735.15 646.96 735.28 653.88 735.05 660.80 C 725.71 660.98 716.37 660.92 707.03 660.91 C 697.17 660.77 687.31 661.36 677.45 660.84 C 677.30 635.22 677.66 609.60 677.35 583.98 Z" opacity="1.00" fill="#fefefe"/>
<path d="M 747.04 579.83 C 755.16 579.92 763.28 579.84 771.40 579.77 C 771.19 590.48 771.40 601.20 771.11 611.91 C 779.03 611.52 786.95 612.53 794.86 611.80 C 794.76 601.16 794.98 590.51 794.85 579.87 C 802.96 579.88 811.07 579.75 819.19 579.79 C 818.55 588.48 818.82 597.21 819.07 605.91 C 818.51 624.22 819.11 642.55 818.74 660.86 C 810.86 660.78 802.99 661.37 795.12 660.79 C 794.68 652.12 795.13 643.45 795.03 634.78 C 787.08 634.77 779.14 634.76 771.21 634.73 C 771.50 643.42 771.28 652.12 771.29 660.81 C 763.22 660.97 755.15 660.79 747.08 660.83 C 746.87 633.83 747.15 606.83 747.04 579.83 M 759.30 581.23 C 758.69 583.08 759.09 585.09 759.08 587.01 C 758.25 587.76 757.44 588.51 756.64 589.28 C 760.36 591.81 765.75 591.80 769.68 589.78 C 770.60 586.96 770.03 583.94 769.95 581.04 C 766.41 580.95 762.74 580.21 759.30 581.23 M 806.10 581.05 C 806.70 584.26 806.82 587.55 806.12 590.76 C 809.70 590.79 813.28 590.96 816.83 591.50 C 817.71 588.09 818.14 584.58 818.01 581.06 C 814.04 580.77 810.06 580.72 806.10 581.05 Z" opacity="1.00" fill="#fefefe"/>
<path d="M 831.04 579.71 C 839.13 579.85 847.22 579.82 855.31 579.59 C 855.10 599.76 855.45 619.93 855.23 640.10 C 863.65 640.06 872.07 640.05 880.49 640.07 C 880.38 620.01 880.42 599.94 880.30 579.87 C 888.37 579.77 896.44 579.84 904.51 579.49 C 904.63 606.61 904.75 633.75 904.62 660.88 C 880.14 661.04 855.66 660.90 831.17 660.88 C 830.95 633.82 831.15 606.76 831.04 579.71 M 890.06 588.86 C 890.30 589.45 890.76 590.62 890.99 591.21 C 893.19 590.90 895.53 590.66 897.23 589.05 C 894.86 588.62 892.44 588.63 890.06 588.86 Z" opacity="1.00" fill="#fefefe"/>
<path d="M 916.59 579.82 C 937.78 579.84 958.97 579.93 980.16 579.79 C 980.10 581.71 980.12 583.65 979.81 585.56 C 979.35 587.92 979.13 590.31 979.16 592.73 C 977.29 592.51 977.80 590.39 977.51 589.03 C 974.47 588.33 971.34 588.73 968.28 588.97 C 968.62 592.59 968.98 596.21 969.38 599.83 C 969.04 600.06 968.36 600.53 968.02 600.77 C 958.76 600.86 949.49 600.94 940.23 600.67 C 940.43 604.36 940.43 608.06 940.37 611.75 C 953.63 611.66 966.89 612.00 980.15 611.63 C 979.98 626.18 980.18 640.73 980.09 655.28 C 979.43 653.87 979.30 651.87 977.92 651.01 C 974.81 650.38 971.62 650.85 968.50 651.00 C 968.35 653.97 968.15 656.93 967.94 659.90 C 964.48 660.05 961.04 660.37 957.62 660.77 C 944.00 661.25 930.36 660.81 916.73 660.84 C 916.78 654.04 916.79 647.24 916.58 640.45 C 929.82 639.78 943.10 640.20 956.35 640.11 C 956.33 636.63 956.34 633.16 956.38 629.69 C 943.08 629.41 929.78 629.58 916.49 629.61 C 916.88 613.02 916.75 596.42 916.59 579.82 Z" opacity="1.00" fill="#fefefe"/>
<path d="M 992.15 579.84 C 1008.97 580.06 1025.80 579.59 1042.63 579.90 C 1041.66 586.21 1042.87 592.51 1042.69 598.84 C 1046.33 598.92 1050.13 598.88 1053.48 600.58 C 1040.91 600.84 1028.34 600.84 1015.78 600.76 C 1015.79 604.44 1015.75 608.12 1015.72 611.81 C 1027.59 611.84 1039.47 611.82 1051.34 611.69 C 1051.28 617.65 1051.28 623.61 1051.27 629.57 C 1039.46 629.59 1027.65 629.66 1015.83 629.65 C 1015.80 633.21 1015.80 636.77 1015.81 640.33 C 1028.59 640.17 1041.38 640.25 1054.17 640.15 C 1054.15 641.95 1054.25 643.77 1054.08 645.59 C 1053.59 647.26 1053.04 648.92 1052.52 650.59 C 1049.19 650.66 1045.34 649.31 1042.36 651.14 C 1042.23 654.13 1042.63 657.11 1042.88 660.10 C 1026.14 660.96 1009.31 659.39 992.62 660.85 L 992.08 660.92 C 992.19 633.89 992.04 606.86 992.15 579.84 Z" opacity="1.00" fill="#fefefe"/>
<path d="M 1065.28 580.03 C 1084.53 579.78 1103.78 579.84 1123.03 579.90 C 1122.41 586.23 1122.58 592.58 1122.60 598.93 C 1125.99 599.30 1129.42 599.40 1132.84 599.26 C 1133.25 597.72 1133.73 596.20 1134.12 594.66 C 1134.19 596.70 1134.22 598.74 1134.25 600.80 C 1126.88 600.60 1119.51 600.81 1112.15 600.80 C 1112.24 620.79 1112.13 640.79 1112.14 660.79 C 1104.05 660.74 1095.96 661.34 1087.88 660.89 C 1087.66 640.87 1087.75 620.85 1087.86 600.83 C 1080.36 600.88 1072.86 600.85 1065.36 600.76 C 1065.37 593.85 1065.29 586.94 1065.28 580.03 Z" opacity="1.00" fill="#fefefe"/>
</g>
<g id="#f2f2f4ff">
<path d="M 654.15 579.82 C 656.32 579.85 658.50 579.72 660.67 579.96 C 661.77 580.34 662.87 580.76 663.97 581.19 C 664.22 587.15 664.20 593.11 663.97 599.07 C 661.07 599.11 658.18 599.07 655.30 598.94 C 654.00 592.61 655.52 586.12 654.15 579.82 Z" opacity="1.00" fill="#f2f2f4"/>
</g>
<g id="#eff0f3ff">
<path d="M 678.00 579.65 C 682.85 580.24 687.74 579.56 692.60 580.01 C 695.03 580.48 697.46 580.97 699.92 581.39 C 700.01 584.23 700.03 587.07 699.97 589.91 C 693.48 591.33 686.90 591.08 680.34 590.88 C 680.03 592.59 679.73 594.31 679.42 596.04 C 678.52 590.61 679.28 585.02 678.00 579.65 Z" opacity="1.00" fill="#eff0f3"/>
<path d="M 806.10 581.05 C 810.06 580.72 814.04 580.77 818.01 581.06 C 818.14 584.58 817.71 588.09 816.83 591.50 C 813.28 590.96 809.70 590.79 806.12 590.76 C 806.82 587.55 806.70 584.26 806.10 581.05 Z" opacity="1.00" fill="#eff0f3"/>
</g>
<g id="#eceef1ff">
<path d="M 1042.63 579.90 C 1046.32 579.90 1050.03 579.84 1053.74 579.86 C 1053.48 586.79 1053.71 593.73 1053.71 600.67 L 1053.48 600.58 C 1050.13 598.88 1046.33 598.92 1042.69 598.84 C 1042.87 592.51 1041.66 586.21 1042.63 579.90 Z" opacity="1.00" fill="#eceef1"/>
</g>
<g id="#e8eaedff">
<path d="M 1123.03 579.90 C 1126.71 579.89 1130.40 579.85 1134.09 579.80 C 1133.99 584.75 1134.34 589.71 1134.12 594.66 C 1133.73 596.20 1133.25 597.72 1132.84 599.26 C 1129.42 599.40 1125.99 599.30 1122.60 598.93 C 1122.58 592.58 1122.41 586.23 1123.03 579.90 Z" opacity="1.00" fill="#e8eaed"/>
</g>
<g id="#f1f2f5ff">
<path d="M 575.47 581.22 C 579.62 580.73 583.80 580.75 587.97 581.04 C 588.33 584.95 588.21 588.89 587.84 592.80 C 587.20 591.86 586.84 590.67 585.91 590.01 C 582.89 589.95 579.87 591.03 576.90 590.17 C 576.84 587.16 577.93 583.57 575.47 581.22 Z" opacity="1.00" fill="#f1f2f5"/>
</g>
<g id="#eff1f4ff">
<path d="M 759.30 581.23 C 762.74 580.21 766.41 580.95 769.95 581.04 C 770.03 583.94 770.60 586.96 769.68 589.78 C 765.75 591.80 760.36 591.81 756.64 589.28 C 757.44 588.51 758.25 587.76 759.08 587.01 C 759.09 585.09 758.69 583.08 759.30 581.23 Z" opacity="1.00" fill="#eff1f4"/>
</g>
<g id="#e6e8ebff">
<path d="M 979.16 592.73 C 979.13 590.31 979.35 587.92 979.81 585.56 C 980.30 590.61 980.04 595.70 979.93 600.77 C 975.96 600.73 971.99 600.76 968.02 600.77 C 968.36 600.53 969.04 600.06 969.38 599.83 C 968.98 596.21 968.62 592.59 968.28 588.97 C 971.34 588.73 974.47 588.33 977.51 589.03 C 977.80 590.39 977.29 592.51 979.16 592.73 Z" opacity="1.00" fill="#e6e8eb"/>
</g>
<g id="#e4e7eaff">
<path d="M 890.06 588.86 C 892.44 588.63 894.86 588.62 897.23 589.05 C 895.53 590.66 893.19 590.90 890.99 591.21 C 890.76 590.62 890.30 589.45 890.06 588.86 Z" opacity="1.00" fill="#e4e7ea"/>
</g>
<g id="#01071dff">
<path d="M 426.82 600.71 C 434.11 600.95 441.40 600.72 448.69 600.90 C 448.58 604.55 448.61 608.21 448.66 611.87 C 441.40 611.71 434.15 611.96 426.90 611.80 C 426.87 608.10 426.85 604.40 426.82 600.71 Z" opacity="1.00" fill="#01071d"/>
</g>
<g id="#e4e8edff">
<path d="M 1052.52 650.59 C 1053.04 648.92 1053.59 647.26 1054.08 645.59 C 1054.37 650.65 1054.30 655.73 1054.04 660.79 C 1040.01 661.33 1025.98 660.92 1011.95 661.06 C 1005.50 660.92 999.04 661.37 992.62 660.85 C 1009.31 659.39 1026.14 660.96 1042.88 660.10 C 1042.63 657.11 1042.23 654.13 1042.36 651.14 C 1045.34 649.31 1049.19 650.66 1052.52 650.59 Z" opacity="1.00" fill="#e4e8ed"/>
</g>
<g id="#eceff2ff">
<path d="M 968.50 651.00 C 971.62 650.85 974.81 650.38 977.92 651.01 C 979.30 651.87 979.43 653.87 980.09 655.28 C 980.16 657.11 980.03 658.95 979.98 660.79 C 972.52 660.86 965.06 661.09 957.62 660.77 C 961.04 660.37 964.48 660.05 967.94 659.90 C 968.15 656.93 968.35 653.97 968.50 651.00 Z" opacity="1.00" fill="#eceff2"/>
</g>
</svg>